<?xml version="1.0" encoding="UTF-8"?>
<svg version="1.1" xmlns="http://www.w3.org/2000/svg" width="225" height="225">
<path d="M0 0 C74.25 0 148.5 0 225 0 C225 74.25 225 148.5 225 225 C150.75 225 76.5 225 0 225 C0 150.75 0 76.5 0 0 Z " fill="#FEFEFE" transform="translate(0,0)"/>
<path d="M0 0 C5.28 0 10.56 0 16 0 C16 5.28 16 10.56 16 16 C10.72 16 5.44 16 0 16 C0 10.72 0 5.44 0 0 Z " fill="#FEBC15" transform="translate(53,113)"/>
<path d="M0 0 C5.28 0 10.56 0 16 0 C16 5.28 16 10.56 16 16 C10.72 16 5.44 16 0 16 C0 10.72 0 5.44 0 0 Z " fill="#14A8EF" transform="translate(36,113)"/>
<path d="M0 0 C5.28 0 10.56 0 16 0 C16 5.28 16 10.56 16 16 C10.72 16 5.44 16 0 16 C0 10.72 0 5.44 0 0 Z " fill="#86BE15" transform="translate(53,96)"/>
<path d="M0 0 C5.28 0 10.56 0 16 0 C16 5.28 16 10.56 16 16 C10.72 16 5.44 16 0 16 C0 10.72 0 5.44 0 0 Z " fill="#F35122" transform="translate(36,96)"/>
<path d="M0 0 C1.65 0 3.3 0 5 0 C5 6.6 5 13.2 5 20 C3.68 20 2.36 20 1 20 C0.67 16.37 0.34 12.74 0 9 C-1.32 12.3 -2.64 15.6 -4 19 C-5.32 19 -6.64 19 -8 19 C-9.32 15.7 -10.64 12.4 -12 9 C-12.33 12.63 -12.66 16.26 -13 20 C-13.99 20 -14.98 20 -16 20 C-16 13.73 -16 7.46 -16 1 C-14.35 1 -12.7 1 -11 1 C-9.35 5.29 -7.7 9.58 -6 14 C-4.02 9.38 -2.04 4.76 0 0 Z " fill="#717171" transform="translate(95,102)"/>
<path d="M0 0 C1.15628906 0.02707031 2.31257813 0.05414063 3.50390625 0.08203125 C4.47199219 0.11683594 5.44007812 0.15164062 6.4375 0.1875 C7.0975 0.1875 7.7575 0.1875 8.4375 0.1875 C9.4275 0.1875 10.4175 0.1875 11.4375 0.1875 C11.4375 1.1775 11.4375 2.1675 11.4375 3.1875 C10.1175 3.5175 8.7975 3.8475 7.4375 4.1875 C7.1075 7.4875 6.7775 10.7875 6.4375 14.1875 C5.633125 14.001875 4.82875 13.81625 4 13.625 C3.154375 13.480625 2.30875 13.33625 1.4375 13.1875 C1.1075 13.5175 0.7775 13.8475 0.4375 14.1875 C-5.68395749 14.6409413 -5.68395749 14.6409413 -8.5 13.1875 C-10.17320976 10.03792868 -10.27759578 6.6648285 -9.5625 3.1875 C-7.13264035 -0.60649139 -4.21217059 -0.12707107 0 0 Z " fill="#F3F3F3" transform="translate(118.5625,107.8125)"/>
<path d="M0 0 C1.9375 1 1.9375 1 3 3 C3.52673518 6.56102656 3.62932095 9.7413581 2 13 C-1.26083766 14.63041883 -4.44238446 14.65964122 -8 14 C-10.6923481 11.81246717 -10.93936827 10.41576045 -11.4375 7 C-11 4 -11 4 -9.4375 1.625 C-6.1005787 -0.5996142 -3.93094707 -0.50030235 0 0 Z " fill="#7D7D7D" transform="translate(141,108)"/>
<path d="M0 0 C1.875 0.3125 1.875 0.3125 3.875 1.375 C5.46404125 4.45376742 5.23273097 6.91405579 4.875 10.3125 C3.875 12.75 3.875 12.75 1.875 14.3125 C-0.90077319 14.8734375 -3.34984315 14.87909452 -6.125 14.3125 C-8.82915801 12.11537161 -9.06992745 10.75308039 -9.5 7.3125 C-8.70325537 0.93854299 -6.04371667 -0.35551275 0 0 Z " fill="#707070" transform="translate(166.125,107.6875)"/>
<path d="M0 0 C0 0.99 0 1.98 0 3 C-0.99 3.33 -1.98 3.66 -3 4 C-3.33 4.99 -3.66 5.98 -4 7 C-2.35 7 -0.7 7 1 7 C1.33 5.68 1.66 4.36 2 3 C2.66 3 3.32 3 4 3 C4 4.32 4 5.64 4 7 C5.32 7 6.64 7 8 7 C8 7.99 8 8.98 8 10 C6.68 10 5.36 10 4 10 C4.33 12.64 4.66 15.28 5 18 C5.99 18.33 6.98 18.66 8 19 C8 19.66 8 20.32 8 21 C5.625 21.125 5.625 21.125 3 21 C1 19 1 19 0.8046875 16.8359375 C0.82789063 16.02382812 0.85109375 15.21171875 0.875 14.375 C0.89304688 13.55773437 0.91109375 12.74046875 0.9296875 11.8984375 C0.95289063 11.27195312 0.97609375 10.64546875 1 10 C-0.65 10 -2.3 10 -4 10 C-4 13.63 -4 17.26 -4 21 C-4.99 21 -5.98 21 -7 21 C-7 17.37 -7 13.74 -7 10 C-7.66 10 -8.32 10 -9 10 C-9 9.01 -9 8.02 -9 7 C-8.34 7 -7.68 7 -7 7 C-6.87625 6.030625 -6.7525 5.06125 -6.625 4.0625 C-6.41875 3.051875 -6.2125 2.04125 -6 1 C-4 0 -4 0 0 0 Z " fill="#6F6F6F" transform="translate(181,101)"/>
<path d="M0 0 C1.65 0 3.3 0 5 0 C5 6.6 5 13.2 5 20 C3.68 20 2.36 20 1 20 C0.67 16.37 0.34 12.74 0 9 C-0.33 9.99 -0.66 10.98 -1 12 C-1.99 12 -2.98 12 -4 12 C-3.33501617 7.61110675 -1.81242323 4.0188515 0 0 Z " fill="#7C7C7C" transform="translate(95,102)"/>
<path d="M0 0 C5.28 0 10.56 0 16 0 C16 5.28 16 10.56 16 16 C10.72 16 5.44 16 0 16 C0 10.72 0 5.44 0 0 Z M2 1 C2 5.29 2 9.58 2 14 C5.96 14 9.92 14 14 14 C14 9.71 14 5.42 14 1 C10.04 1 6.08 1 2 1 Z " fill="#F36842" transform="translate(36,96)"/>
<path d="M0 0 C1.670625 0.061875 1.670625 0.061875 3.375 0.125 C3.375 1.115 3.375 2.105 3.375 3.125 C1.725 3.125 0.075 3.125 -1.625 3.125 C-1.191875 3.558125 -0.75875 3.99125 -0.3125 4.4375 C1.25 6 2.8125 7.5625 4.375 9.125 C3.715 10.775 3.055 12.425 2.375 14.125 C-0.265 14.125 -2.905 14.125 -5.625 14.125 C-5.625 13.135 -5.625 12.145 -5.625 11.125 C-2.655 11.62 -2.655 11.62 0.375 12.125 C0.375 11.135 0.375 10.145 0.375 9.125 C-0.429375 8.898125 -1.23375 8.67125 -2.0625 8.4375 C-4.625 7.125 -4.625 7.125 -5.5625 4.625 C-5.583125 3.8 -5.60375 2.975 -5.625 2.125 C-3.625 0.125 -3.625 0.125 0 0 Z " fill="#737373" transform="translate(151.625,107.875)"/>
<path d="M0 0 C0 0.99 0 1.98 0 3 C-1.98 3.33 -3.96 3.66 -6 4 C-6 5.98 -6 7.96 -6 10 C-4.35 10.33 -2.7 10.66 -1 11 C-0.67 11.99 -0.34 12.98 0 14 C-6.30818278 14.35706695 -6.30818278 14.35706695 -8.9375 13 C-10.65886567 9.75978228 -10.52960415 6.58042244 -10 3 C-7.8202924 -1.102979 -4.20798751 -0.23818797 0 0 Z " fill="#6C6C6C" transform="translate(119,108)"/>
<path d="M0 0 C1.98 0 3.96 0 6 0 C6.625 3.375 6.625 3.375 7 7 C6.34 7.66 5.68 8.32 5 9 C2.375 8.625 2.375 8.625 0 8 C-1.125 2.25 -1.125 2.25 0 0 Z " fill="#F2F2F2" transform="translate(161,111)"/>
<path d="M0 0 C5.33333333 -0.35555556 5.33333333 -0.35555556 7.875 1 C9.68523932 4.21820324 9.53967465 7.40216898 9 11 C7.875 13 7.875 13 6 14 C2.8125 14.1875 2.8125 14.1875 0 14 C1.25541557 11.48916886 2.50063488 11.12874554 5 10 C5.41746608 7.12635209 5.41746608 7.12635209 5 4 C2.59141286 2.1375562 2.59141286 2.1375562 0 1 C0 0.67 0 0.34 0 0 Z " fill="#6A6A6A" transform="translate(135,108)"/>
<path d="M0 0 C2.5 0.125 2.5 0.125 3.5 1.125 C3.6875 4.0625 3.6875 4.0625 3.5 7.125 C2.84 7.785 2.18 8.445 1.5 9.125 C-2.03571429 8.58928571 -2.03571429 8.58928571 -3.5 7.125 C-3.625 4.125 -3.625 4.125 -3.5 1.125 C-2.5 0.125 -2.5 0.125 0 0 Z " fill="#FAFAFA" transform="translate(137.5,110.875)"/>
<path d="M0 0 C1.32 0.33 2.64 0.66 4 1 C6.18703385 0.62092718 6.18703385 0.62092718 8 0 C8 0.99 8 1.98 8 3 C6.68 3.33 5.36 3.66 4 4 C3.67 7.3 3.34 10.6 3 14 C2.01 14 1.02 14 0 14 C0 9.38 0 4.76 0 0 Z " fill="#656565" transform="translate(122,108)"/>
<path d="M0 0 C0.99 0 1.98 0 3 0 C3 4.62 3 9.24 3 14 C2.01 14 1.02 14 0 14 C0 9.38 0 4.76 0 0 Z " fill="#636363" transform="translate(103,108)"/>
<path d="M0 0 C1.134375 0.020625 2.26875 0.04125 3.4375 0.0625 C3.4375 1.0525 3.4375 2.0425 3.4375 3.0625 C1.7875 3.0625 0.1375 3.0625 -1.5625 3.0625 C-1.2325 4.3825 -0.9025 5.7025 -0.5625 7.0625 C-1.5525 7.3925 -2.5425 7.7225 -3.5625 8.0625 C-4.2225 7.4025 -4.8825 6.7425 -5.5625 6.0625 C-4.83351201 0.08479846 -4.83351201 0.08479846 0 0 Z " fill="#7D7D7D" transform="translate(151.5625,107.9375)"/>
<path d="M0 0 C2.82405426 0.05637858 3.75432284 0.08136713 6.0625 1.8125 C6.5575 2.555 6.5575 2.555 7.0625 3.3125 C6.7325 4.3025 6.4025 5.2925 6.0625 6.3125 C5.0725 5.9825 4.0825 5.6525 3.0625 5.3125 C3.0625 4.6525 3.0625 3.9925 3.0625 3.3125 C1.391875 3.621875 1.391875 3.621875 -0.3125 3.9375 C-1.50875 4.06125 -2.705 4.185 -3.9375 4.3125 C-4.5975 3.6525 -5.2575 2.9925 -5.9375 2.3125 C-3.9375 0.3125 -3.9375 0.3125 0 0 Z " fill="#757575" transform="translate(163.9375,107.6875)"/>
<path d="M0 0 C0.66 0 1.32 0 2 0 C2 5.28 2 10.56 2 16 C1.67 16 1.34 16 1 16 C0.67 12.37 0.34 8.74 0 5 C-0.33 5.99 -0.66 6.98 -1 8 C-1.99 8 -2.98 8 -4 8 C-3.67 6.35 -3.34 4.7 -3 3 C-2.34 3 -1.68 3 -1 3 C-0.67 2.01 -0.34 1.02 0 0 Z " fill="#838383" transform="translate(95,106)"/>
<path d="M0 0 C0.99 0 1.98 0 3 0 C2.25 6.75 2.25 6.75 0 9 C-3.625 9.125 -3.625 9.125 -7 9 C-5 7 -5 7 -2.9375 6.1875 C-0.71610925 5.12640104 -0.71610925 5.12640104 -0.25 2.375 C-0.1675 1.59125 -0.085 0.8075 0 0 Z " fill="#676767" transform="translate(168,113)"/>
<path d="M0 0 C3.96 1.98 3.96 1.98 8 4 C8 4.99 8 5.98 8 7 C5.36 6.67 2.72 6.34 0 6 C0 4.02 0 2.04 0 0 Z " fill="#EDEDED" transform="translate(144,113)"/>
<path d="M0 0 C0.33 0 0.66 0 1 0 C1.33 2.64 1.66 5.28 2 8 C2.99 8.33 3.98 8.66 5 9 C5 9.66 5 10.32 5 11 C3.35 11 1.7 11 0 11 C-1.35015859 6.94952424 -0.62084998 4.2079832 0 0 Z " fill="#676767" transform="translate(184,111)"/>
<path d="M0 0 C0.99 0.33 1.98 0.66 3 1 C2.34 2.65 1.68 4.3 1 6 C0.34 6 -0.32 6 -1 6 C-1.042721 4.33388095 -1.04063832 2.66617115 -1 1 C-0.67 0.67 -0.34 0.34 0 0 Z " fill="#6A6A6A" transform="translate(158,111)"/>
</svg>
