<?xml version="1.0" encoding="UTF-8"?>
<svg version="1.1" xmlns="http://www.w3.org/2000/svg" width="225" height="225">
<path d="M0 0 C74.25 0 148.5 0 225 0 C225 74.25 225 148.5 225 225 C150.75 225 76.5 225 0 225 C0 150.75 0 76.5 0 0 Z " fill="#0375BB" transform="translate(0,0)"/>
<path d="M0 0 C0.9075 0.226875 1.815 0.45375 2.75 0.6875 C3.08 1.6775 3.41 2.6675 3.75 3.6875 C2.42162109 4.30625 2.42162109 4.30625 1.06640625 4.9375 C-7.01057317 9.19955745 -12.94591676 15.19764598 -16.35546875 23.69140625 C-17.92115281 28.93542229 -18.67139406 34.25551287 -19.25 39.6875 C-11.71059255 35.3343117 -6.10499788 30.55812066 -2.25 22.6875 C-3.0853125 23.2134375 -3.0853125 23.2134375 -3.9375 23.75 C-6.78886783 24.90595993 -8.33517222 24.49717438 -11.25 23.6875 C-11.0390625 21.87890625 -11.0390625 21.87890625 -10.25 19.6875 C-7.16880122 17.27330402 -3.70320238 15.51928789 -0.25 13.6875 C0.40097656 13.34074219 1.05195312 12.99398437 1.72265625 12.63671875 C5.82057523 10.66710393 9.24781313 10.17781847 13.75 10.6875 C16.1875 12.1875 16.1875 12.1875 17.75 13.6875 C18.471875 13.171875 19.19375 12.65625 19.9375 12.125 C23.1695366 10.47307018 24.36608307 10.62398325 27.75 11.6875 C27.75 17.10337395 26.00796911 20.40826905 22.75 24.6875 C19.04548481 27.82208977 15.09384425 30.51557787 10.75 32.6875 C10.09786708 34.71213255 10.09786708 34.71213255 9.75 36.6875 C22.80661496 30.40461761 29.31980438 24.30052497 34.75 10.6875 C35.36875 11.038125 35.9875 11.38875 36.625 11.75 C37.32625 12.059375 38.0275 12.36875 38.75 12.6875 C39.41 12.3575 40.07 12.0275 40.75 11.6875 C48.0426045 11.10872186 48.0426045 11.10872186 50.8125 13.375 C52.01500195 16.34117147 51.80198158 17.68183836 50.75 20.6875 C49.77727325 22.04085895 48.7760734 23.37412604 47.75 24.6875 C46.42879405 27.47671255 45.7421155 29.74381789 45.3125 32.8125 C44.75 35.6875 44.75 35.6875 43.4375 37.625 C41.75 38.6875 41.75 38.6875 39.5625 38.375 C38.964375 38.148125 38.36625 37.92125 37.75 37.6875 C38.32065878 31.26758874 40.42344909 25.67160537 42.75 19.6875 C42.42 19.3575 42.09 19.0275 41.75 18.6875 C35.70007527 24.61538014 32.61524932 30.76515166 29.75 38.6875 C28.1 38.3575 26.45 38.0275 24.75 37.6875 C24.42 36.0375 24.09 34.3875 23.75 32.6875 C22.76 32.6875 21.77 32.6875 20.75 32.6875 C20.70875 33.244375 20.6675 33.80125 20.625 34.375 C19.3074667 37.8570523 16.99049744 39.99524023 13.75 41.6875 C10 41.6875 10 41.6875 6.75 40.6875 C4.66513923 37.56020884 4.21733824 35.67183397 4.29296875 31.9453125 C5.34699402 26.73824748 9.21159448 22.66130331 12.40625 18.5625 C13.82203672 16.58698364 14.32608416 15.06142872 14.75 12.6875 C13.6775 13.30625 12.605 13.925 11.5 14.5625 C8.95219016 16.0198679 6.39740645 17.41674491 3.75 18.6875 C3.95882812 19.4196875 4.16765625 20.151875 4.3828125 20.90625 C5.00848126 25.64535804 2.34398912 28.8732203 -0.25 32.6875 C-2.625 35.375 -2.625 35.375 -5.25 37.6875 C-5.78625 38.21472656 -6.3225 38.74195313 -6.875 39.28515625 C-10.78031303 42.97253886 -13.63671042 44.79544788 -19.25 44.6875 C-21.44537385 43.29709656 -22.05326152 42.34757186 -22.7890625 39.87890625 C-24.82893926 30.18084809 -22.39371806 22.68102786 -17.34570312 14.34472656 C-13.65433326 8.7616119 -7.32709962 -0.70452881 0 0 Z " fill="#EEF4F9" transform="translate(31.25,74.3125)"/>
<path d="M0 0 C-3.14484025 2.09656017 -4.14989496 2.29174628 -7.77734375 2.48657227 C-8.75106934 2.54325577 -9.72479492 2.59993927 -10.72802734 2.65834045 C-11.78715332 2.71050217 -12.8462793 2.76266388 -13.9375 2.81640625 C-15.04561035 2.87779282 -16.1537207 2.93917938 -17.29541016 3.00242615 C-20.86320506 3.19762963 -24.43153758 3.3799533 -28 3.5625 C-30.31124076 3.68867075 -32.62243937 3.81561616 -34.93359375 3.94335938 C-41.95436071 4.32572561 -48.97675182 4.66682293 -56 5 C-57.58276733 5.07888458 -57.58276733 5.07888458 -59.19750977 5.15936279 C-80.96162738 6.22523689 -102.71726684 6.08260975 -124.5 6 C-130.86404561 5.97627127 -137.22806847 5.95604237 -143.59214783 5.94406128 C-146.1132645 5.93761 -148.63430413 5.92512961 -151.15539551 5.91235352 C-152.68497655 5.9087252 -154.21455828 5.90537296 -155.74414062 5.90234375 C-156.78642319 5.89459427 -156.78642319 5.89459427 -157.84976196 5.88668823 C-160.85798702 5.88635596 -163.11904002 6.03968001 -166 7 C-168.45612954 7.12139491 -170.91590196 7.17542192 -173.375 7.1875 C-174.68210937 7.20167969 -175.98921875 7.21585938 -177.3359375 7.23046875 C-180.73798963 7.0164804 -182.96683747 6.48144811 -186 5 C-186 5.66 -186 6.32 -186 7 C-190.95 6.67 -195.9 6.34 -201 6 C-201.33 4.68 -201.66 3.36 -202 2 C-197.37138171 0.84162999 -192.88534721 0.82752287 -188.14599609 0.79467773 C-187.25579836 0.78478097 -186.36560062 0.7748842 -185.4484272 0.76468754 C-182.47345773 0.73293651 -179.49847437 0.70815921 -176.5234375 0.68359375 C-174.40050961 0.66287026 -172.27758484 0.64182612 -170.15466309 0.6204834 C-164.41952059 0.56441399 -158.68433844 0.51510947 -152.94911957 0.46757126 C-149.38340372 0.43757071 -145.81770891 0.40572626 -142.25201416 0.37332153 C-94.83446724 -0.05499801 -47.4190511 -0.11639524 0 0 Z " fill="#E8EFF6" transform="translate(213,124)"/>
<path d="M0 0 C0.66 0 1.32 0 2 0 C1.125 7.75 1.125 7.75 0 10 C1.093125 9.938125 2.18625 9.87625 3.3125 9.8125 C7 10 7 10 8.9375 11.5 C9.288125 11.995 9.63875 12.49 10 13 C9.34 13.66 8.68 14.32 8 15 C8 14.34 8 13.68 8 13 C3.98590546 14.37626099 1.27690874 16.34304697 -2 19 C-2.66 19 -3.32 19 -4 19 C-4.226875 19.7425 -4.45375 20.485 -4.6875 21.25 C-6 24 -6 24 -8.41015625 25.59765625 C-12.05667632 28.98017486 -12.64098302 32.44998786 -13.75 37.1875 C-14.15902992 38.82743052 -14.57036451 40.46678852 -14.984375 42.10546875 C-15.15678711 42.82887451 -15.32919922 43.55228027 -15.50683594 44.29760742 C-16 46 -16 46 -17 47 C-18.66617115 47.04063832 -20.33388095 47.042721 -22 47 C-22.0825 46.21625 -22.165 45.4325 -22.25 44.625 C-22.4975 43.75875 -22.745 42.8925 -23 42 C-23.639375 41.731875 -24.27875 41.46375 -24.9375 41.1875 C-27 40 -27 40 -27.70703125 38.10546875 C-28.19907275 36.08420475 -28.60469903 34.04238834 -29 32 C-29.30292969 32.53109375 -29.60585937 33.0621875 -29.91796875 33.609375 C-32.48233857 37.93329703 -34.77603273 41.1035653 -39 44 C-42.875 42.25 -42.875 42.25 -44 40 C-45.30702265 32.48461975 -41.06240119 27.06057414 -37 21 C-33.42664509 16.15237325 -33.42664509 16.15237325 -30.375 15.0625 C-29.59125 15.041875 -28.8075 15.02125 -28 15 C-27.34 15.66 -26.68 16.32 -26 17 C-24.35008418 17.70710678 -22.68437744 18.37943989 -21 19 C-20.77268784 25.93302093 -21.57997892 32.2168636 -23 39 C-20.81479322 36.96718622 -19.33488495 35.06854982 -17.95703125 32.42578125 C-17.60576172 31.75869141 -17.25449219 31.09160156 -16.89257812 30.40429688 C-16.53615234 29.71400391 -16.17972656 29.02371094 -15.8125 28.3125 C-15.44447266 27.61060547 -15.07644531 26.90871094 -14.69726562 26.18554688 C-13.7932106 24.45962365 -12.89593399 22.73015281 -12 21 C-13.65 20.01 -15.3 19.02 -17 18 C-14.8709858 15.65808437 -12.95591271 14.16445046 -10 13 C-8.68 13 -7.36 13 -6 13 C-5.7525 12.154375 -5.505 11.30875 -5.25 10.4375 C-3.86026373 6.61572526 -2.08879162 3.48131937 0 0 Z " fill="#F2F7FA" transform="translate(157,70)"/>
<path d="M0 0 C0.61875 0.350625 1.2375 0.70125 1.875 1.0625 C2.57625 1.371875 3.2775 1.68125 4 2 C4.66 1.67 5.32 1.34 6 1 C13.2926045 0.42122186 13.2926045 0.42122186 16.0625 2.6875 C17.26500195 5.65367147 17.05198158 6.99433836 16 10 C15.02727325 11.35335895 14.0260734 12.68662604 13 14 C11.67879405 16.78921255 10.9921155 19.05631789 10.5625 22.125 C10 25 10 25 8.6875 26.9375 C7 28 7 28 4.8125 27.6875 C4.214375 27.460625 3.61625 27.23375 3 27 C3.57065878 20.58008874 5.67344909 14.98410537 8 9 C7.67 8.67 7.34 8.34 7 8 C0.95007527 13.92788014 -2.13475068 20.07765166 -5 28 C-6.65 27.67 -8.3 27.34 -10 27 C-11.18457146 22.85399989 -10.77877677 20.87416429 -9 17 C-8.05161842 15.35684306 -7.0712455 13.7318058 -6.0625 12.125 C-3.64263797 8.17275591 -1.68696294 4.31112751 0 0 Z " fill="#F4F8FA" transform="translate(66,85)"/>
<path d="M0 0 C1.32 0.33 2.64 0.66 4 1 C4 1.99 4 2.98 4 4 C4.886875 3.67 5.77375 3.34 6.6875 3 C9.70923347 2.08777857 11.88373706 1.81669042 15 2 C16.94936008 8.44788336 14.79958184 12.86243602 12.2265625 18.9140625 C11.13353166 21.66404455 10.32745471 24.06330299 10 27 C11.37514541 28.7087646 11.37514541 28.7087646 13 30 C13 30.66 13 31.32 13 32 C8.25 31.25 8.25 31.25 6 29 C5.25299221 21.28091953 7.27834859 15.18078563 10 8 C6.56993084 8.4916969 6.56993084 8.4916969 3 10 C1.00462735 13.04760567 1.00462735 13.04760567 -0.1875 16.75 C-1.99490756 21.64614728 -3.79615181 25.84432894 -7 30 C-7.99 30.33 -8.98 30.66 -10 31 C-10.99 30.34 -11.98 29.68 -13 29 C-12.40912033 24.37879186 -10.42940147 20.7527451 -8.1875 16.75 C-5.18049374 11.26154237 -2.43107933 5.7738134 0 0 Z " fill="#F0F5F9" transform="translate(201,85)"/>
<path d="M0 0 C0 5.41587395 -1.74203089 8.72076905 -5 13 C-8.70451519 16.13458977 -12.65615575 18.82807787 -17 21 C-17.65213292 23.02463255 -17.65213292 23.02463255 -18 25 C-17.10796875 24.51789063 -16.2159375 24.03578125 -15.296875 23.5390625 C-14.11460061 22.90100965 -12.93230798 22.2629906 -11.75 21.625 C-10.58984375 20.99851562 -9.4296875 20.37203125 -8.234375 19.7265625 C-5.83763374 18.44714265 -3.43911709 17.19540887 -1 16 C-1.33 16.99 -1.66 17.98 -2 19 C-3.2375 19.4640625 -3.2375 19.4640625 -4.5 19.9375 C-5.325 20.288125 -6.15 20.63875 -7 21 C-7.2165625 21.8971875 -7.2165625 21.8971875 -7.4375 22.8125 C-8.19447682 25.75629873 -9.89279554 27.23770181 -12.2421875 29.08203125 C-15.35883906 30.70961595 -17.77174084 29.99331051 -21 29 C-23.08486077 25.87270884 -23.53266176 23.98433397 -23.45703125 20.2578125 C-22.40573775 15.0642429 -18.56043118 10.97262055 -15.34375 6.90625 C-13.74237432 4.63453101 -13.37894061 2.72837237 -13 0 C-12.01 0.66 -11.02 1.32 -10 2 C-8.9171875 1.2265625 -8.9171875 1.2265625 -7.8125 0.4375 C-4.5804634 -1.21442982 -3.38391693 -1.06351675 0 0 Z " fill="#EDF3F8" transform="translate(59,86)"/>
<path d="M0 0 C2 0.0625 2 0.0625 4 1 C5.5625 3.0625 5.5625 3.0625 6 6 C3.8557742 11.42757156 0.12414624 14.93312755 -4.3515625 18.48046875 C-7.01988674 20.94013256 -8.38674773 23.77349546 -10 27 C-8.72791378 26.37755401 -7.45738118 25.75193233 -6.1875 25.125 C-5.47980469 24.77695313 -4.77210937 24.42890625 -4.04296875 24.0703125 C-1.78753582 22.9343514 -1.78753582 22.9343514 1 21 C-0.45716915 25.12864593 -2.17871377 28.63013034 -5 32 C-8.0625 32.5625 -8.0625 32.5625 -11 32 C-13.90484087 29.71614649 -13.99712607 29.01781836 -14.625 25.125 C-14.38206486 17.32550339 -9.61911884 9.7718029 -4.38671875 4.234375 C-3.59910156 3.49703125 -2.81148437 2.7596875 -2 2 C-1.34 1.34 -0.68 0.68 0 0 Z " fill="#F1F6F9" transform="translate(93,84)"/>
<path d="M0 0 C1.32 0.33 2.64 0.66 4 1 C4 2.32 4 3.64 4 5 C2.56533236 6.36793892 1.12736014 7.73268795 -0.33203125 9.07421875 C-3.55334574 12.79344134 -5.18037045 17.47508049 -7 22 C-0.95779688 18.5473125 3.17275458 15.24487481 6.8125 9.25 C7.41707031 8.26515625 8.02164063 7.2803125 8.64453125 6.265625 C9.31548828 5.14414063 9.31548828 5.14414063 10 4 C11.17409601 7.52228802 10.53813412 8.75121872 9.02734375 12.0234375 C6.7946061 16.31912286 4.43528608 20.56471392 1 24 C0.443125 24.845625 -0.11375 25.69125 -0.6875 26.5625 C-3 29 -3 29 -6.5625 29.9375 C-10 30 -10 30 -13 28 C-14.20665852 23.24375434 -13.24729304 18.82931989 -11 14.5625 C-7.80828443 9.35641639 -3.92495563 4.66514578 0 0 Z " fill="#F0F5F8" transform="translate(183,86)"/>
<path d="M0 0 C0 0.66 0 1.32 0 2 C-1.98 2.99 -1.98 2.99 -4 4 C-4 4.66 -4 5.32 -4 6 C-5.94987565 7.57637006 -7.89708766 9.05017239 -9.9375 10.5 C-14.06353603 13.19693381 -14.06353603 13.19693381 -17 17 C-17.99 17 -18.98 17 -20 17 C-20.1546875 18.7634375 -20.1546875 18.7634375 -20.3125 20.5625 C-20.82914958 24.82485903 -22.1508361 28.14087534 -24 32 C-25.32 32 -26.64 32 -28 32 C-29.64982916 26.17374616 -28.0546336 22.09137972 -26.0625 16.625 C-25.77181641 15.79355469 -25.48113281 14.96210937 -25.18164062 14.10546875 C-24.46664967 12.06598636 -23.73497517 10.03236611 -23 8 C-21.94619141 8.12375 -21.94619141 8.12375 -20.87109375 8.25 C-16.02782719 7.82827339 -12.84476627 4.58140048 -9.03515625 1.75 C-5.67683493 -0.18632941 -3.80727694 -0.36313819 0 0 Z " fill="#F3F7FA" transform="translate(123,81)"/>
<path d="M0 0 C0.66 0 1.32 0 2 0 C1.125 7.75 1.125 7.75 0 10 C1.093125 9.938125 2.18625 9.87625 3.3125 9.8125 C7 10 7 10 8.9375 11.5 C9.288125 11.995 9.63875 12.49 10 13 C9.34 13.66 8.68 14.32 8 15 C8 14.34 8 13.68 8 13 C3.98590546 14.37626099 1.27690874 16.34304697 -2 19 C-2.66 19 -3.32 19 -4 19 C-4.226875 19.7425 -4.45375 20.485 -4.6875 21.25 C-6.25490041 24.53407705 -8.11827794 25.83870845 -11 28 C-11.66 28.99 -12.32 29.98 -13 31 C-14.1875 29.375 -14.1875 29.375 -15 27 C-13.625 23.75 -13.625 23.75 -12 21 C-13.65 20.01 -15.3 19.02 -17 18 C-14.8709858 15.65808437 -12.95591271 14.16445046 -10 13 C-8.68 13 -7.36 13 -6 13 C-5.7525 12.154375 -5.505 11.30875 -5.25 10.4375 C-3.86026373 6.61572526 -2.08879162 3.48131937 0 0 Z " fill="#F1F5F9" transform="translate(157,70)"/>
<path d="M0 0 C3.875 0.875 3.875 0.875 5 2 C4.8786733 7.82368138 2.8879737 11.14020287 -0.52734375 15.7890625 C-2.07476124 18.11224102 -3.04950224 20.38268733 -4 23 C-5.65 23 -7.3 23 -9 23 C-10.16752682 19.53121262 -10.03998152 19.0892427 -8.41796875 15.46875 C-7.68674639 14.13901351 -6.94274212 12.81624261 -6.1875 11.5 C-5.45161245 10.17720039 -4.71592943 8.85428699 -3.98046875 7.53125 C-3.63419434 6.91765625 -3.28791992 6.3040625 -2.93115234 5.671875 C-1.89384294 3.80939604 -0.9258446 1.92027029 0 0 Z " fill="#F2F6F9" transform="translate(162,91)"/>
<path d="M0 0 C1.3125 2.0625 1.3125 2.0625 2 4 C1.01 4.495 1.01 4.495 0 5 C0.66 5.66 1.32 6.32 2 7 C1.01 7.33 0.02 7.66 -1 8 C-1 9.65 -1 11.3 -1 13 C-3.97 13 -6.94 13 -10 13 C-10.66 10.69 -11.32 8.38 -12 6 C-11.34 5.67 -10.68 5.34 -10 5 C-10.66 4.67 -11.32 4.34 -12 4 C-11.67 2.68 -11.34 1.36 -11 0 C-7.05318074 -0.82607845 -3.85214273 -1.39105154 0 0 Z " fill="#DAE7F2" transform="translate(56,141)"/>
<path d="M0 0 C0 0.66 0 1.32 0 2 C0.66 2 1.32 2 2 2 C2 5.96 2 9.92 2 14 C-0.64 14 -3.28 14 -6 14 C-6 12.68 -6 11.36 -6 10 C-6.66 10 -7.32 10 -8 10 C-8.33 10.99 -8.66 11.98 -9 13 C-9.66 13 -10.32 13 -11 13 C-10.67 11.35 -10.34 9.7 -10 8 C-9.01 7.67 -8.02 7.34 -7 7 C-8.32 6.34 -9.64 5.68 -11 5 C-9.68 4.67 -8.36 4.34 -7 4 C-7.99 3.01 -8.98 2.02 -10 1 C-6.61981469 -0.04005702 -3.5219721 -0.08004482 0 0 Z " fill="#E4EDF5" transform="translate(178,140)"/>
<path d="M0 0 C2.4375 0.8125 2.4375 0.8125 4.4375 2.8125 C4.90126812 10.11684783 4.90126812 10.11684783 2.4375 13.8125 C-0.5625 14.125 -0.5625 14.125 -3.5625 13.8125 C-5.97736943 11.39763057 -5.8586925 10.68542211 -5.875 7.375 C-5.89175781 6.59253906 -5.90851563 5.81007812 -5.92578125 5.00390625 C-5.31086501 1.29457278 -3.76394927 -0.27541092 0 0 Z " fill="#E8F0F6" transform="translate(81.5625,140.1875)"/>
<path d="M0 0 C2.5 0.25 2.5 0.25 4.5 2.25 C4.765625 4.5625 4.765625 4.5625 4.75 7.25 C4.75515625 8.136875 4.7603125 9.02375 4.765625 9.9375 C4.5 12.25 4.5 12.25 2.5 14.25 C-0.5625 14.4375 -0.5625 14.4375 -3.5 14.25 C-5.23849628 12.51150372 -4.67216296 10.1713363 -4.6875 7.8125 C-4.70167969 6.82378906 -4.71585937 5.83507812 -4.73046875 4.81640625 C-4.41292845 1.28040668 -3.54124885 0.35412488 0 0 Z " fill="#DDE8F3" transform="translate(131.5,139.75)"/>
<path d="M0 0 C1.32 0 2.64 0 4 0 C4.66 1.98 5.32 3.96 6 6 C6.33 4.02 6.66 2.04 7 0 C7.66 0 8.32 0 9 0 C9 4.62 9 9.24 9 14 C7.68 13.67 6.36 13.34 5 13 C4.67 12.01 4.34 11.02 4 10 C3.67 11.32 3.34 12.64 3 14 C2.01 14 1.02 14 0 14 C0 9.38 0 4.76 0 0 Z " fill="#E3ECF4" transform="translate(138,140)"/>
<path d="M0 0 C1.32 0.33 2.64 0.66 4 1 C4.33 1.99 4.66 2.98 5 4 C5.33 2.68 5.66 1.36 6 0 C6.99 0 7.98 0 9 0 C9 4.62 9 9.24 9 14 C7.68 14 6.36 14 5 14 C4.34 11.69 3.68 9.38 3 7 C2.67 9.31 2.34 11.62 2 14 C1.34 14 0.68 14 0 14 C0 9.38 0 4.76 0 0 Z " fill="#E1ECF4" transform="translate(88,140)"/>
<path d="M0 0 C0.99 0 1.98 0 3 0 C3 1.98 3 3.96 3 6 C3.99 6 4.98 6 6 6 C6 4.02 6 2.04 6 0 C6.99 0 7.98 0 9 0 C9 4.62 9 9.24 9 14 C8.01 14 7.02 14 6 14 C6 12.02 6 10.04 6 8 C5.01 8 4.02 8 3 8 C3 9.98 3 11.96 3 14 C2.01 14 1.02 14 0 14 C0 9.38 0 4.76 0 0 Z " fill="#EDF3F8" transform="translate(65,140)"/>
<path d="M0 0 C0.78375 0.04125 1.5675 0.0825 2.375 0.125 C3.035 1.775 3.695 3.425 4.375 5.125 C3.385 5.125 2.395 5.125 1.375 5.125 C0.715 4.465 0.055 3.805 -0.625 3.125 C-0.955 6.095 -1.285 9.065 -1.625 12.125 C-0.635 12.125 0.355 12.125 1.375 12.125 C1.375 11.135 1.375 10.145 1.375 9.125 C0.715 9.125 0.055 9.125 -0.625 9.125 C-0.625 8.465 -0.625 7.805 -0.625 7.125 C1.025 7.125 2.675 7.125 4.375 7.125 C4.375 9.435 4.375 11.745 4.375 14.125 C-1.77734375 14.22265625 -1.77734375 14.22265625 -3.625 14.125 C-5.36349628 12.38650372 -4.79716296 10.0463363 -4.8125 7.6875 C-4.82667969 6.69878906 -4.84085938 5.71007812 -4.85546875 4.69140625 C-4.52987832 1.06576366 -3.64207772 0.17343227 0 0 Z " fill="#EBF2F7" transform="translate(154.625,139.875)"/>
<path d="M0 0 C0.99 0 1.98 0 3 0 C3.33 0.99 3.66 1.98 4 3 C4.66 2.01 5.32 1.02 6 0 C6.99 0 7.98 0 9 0 C8.649375 0.721875 8.29875 1.44375 7.9375 2.1875 C6.87241022 5.38276934 7.09935771 6.80681371 8 10 C8.2784375 11.1446875 8.2784375 11.1446875 8.5625 12.3125 C8.706875 12.869375 8.85125 13.42625 9 14 C8.01 14 7.02 14 6 14 C5.34 12.68 4.68 11.36 4 10 C3.67 11.32 3.34 12.64 3 14 C2.01 14 1.02 14 0 14 C0 9.38 0 4.76 0 0 Z " fill="#F6F9FB" transform="translate(116,140)"/>
<path d="M0 0 C1.1446875 0.3403125 1.1446875 0.3403125 2.3125 0.6875 C2.6425 2.0075 2.9725 3.3275 3.3125 4.6875 C2.3225 4.6875 1.3325 4.6875 0.3125 4.6875 C0.3125 3.6975 0.3125 2.7075 0.3125 1.6875 C-0.6775 2.1825 -0.6775 2.1825 -1.6875 2.6875 C-1.6875 5.6575 -1.6875 8.6275 -1.6875 11.6875 C-0.6975 10.6975 0.2925 9.7075 1.3125 8.6875 C0.6525 8.6875 -0.0075 8.6875 -0.6875 8.6875 C-0.6875 8.0275 -0.6875 7.3675 -0.6875 6.6875 C0.6325 6.6875 1.9525 6.6875 3.3125 6.6875 C3.3125 8.9975 3.3125 11.3075 3.3125 13.6875 C-0.0625 13.8125 -0.0625 13.8125 -3.6875 13.6875 C-6.10236943 11.27263057 -5.9836925 10.56042211 -6 7.25 C-6.01675781 6.46753906 -6.03351563 5.68507812 -6.05078125 4.87890625 C-5.41685571 1.05490379 -3.85275401 -0.44799465 0 0 Z " fill="#E4EDF5" transform="translate(104.6875,140.3125)"/>
<path d="M0 0 C2.31 0 4.62 0 7 0 C8.24546405 2.49092811 7.7767578 3.41080733 7 6 C8.32 5.67 9.64 5.34 11 5 C12 7 12 7 13 10 C10.36 10 7.72 10 5 10 C5 8.68 5 7.36 5 6 C4.34 6 3.68 6 3 6 C2.67 6.99 2.34 7.98 2 9 C1.34 9 0.68 9 0 9 C0.33 7.35 0.66 5.7 1 4 C1.99 3.67 2.98 3.34 4 3 C2.68 2.34 1.36 1.68 0 1 C0 0.67 0 0.34 0 0 Z " fill="#F0F5F9" transform="translate(167,144)"/>
<path d="M0 0 C2.375 -0.125 2.375 -0.125 5 0 C7 2 7 2 7.265625 4.3125 C7.26046875 5.199375 7.2553125 6.08625 7.25 7 C7.25515625 7.886875 7.2603125 8.77375 7.265625 9.6875 C7 12 7 12 5 14 C4.01 13.67 3.02 13.34 2 13 C2.33 12.67 2.66 12.34 3 12 C3.07179964 10.48071962 3.08392007 8.95832518 3.0625 7.4375 C3.05347656 6.61121094 3.04445312 5.78492188 3.03515625 4.93359375 C3.02355469 4.29550781 3.01195312 3.65742188 3 3 C1.35 3.33 -0.3 3.66 -2 4 C-1.34 2.68 -0.68 1.36 0 0 Z " fill="#EEF3F8" transform="translate(129,140)"/>
<path d="M0 0 C0 0.66 0 1.32 0 2 C-1.98 2.99 -1.98 2.99 -4 4 C-4 4.66 -4 5.32 -4 6 C-5.75 7.6875 -5.75 7.6875 -8 9 C-10.25 8.6875 -10.25 8.6875 -12 8 C-12 6.68 -12 5.36 -12 4 C-7.99873708 0.57034607 -5.24242317 -0.4992784 0 0 Z " fill="#DFEAF3" transform="translate(123,81)"/>
<path d="M0 0 C0.33 0.66 0.66 1.32 1 2 C-0.24241135 3.77616574 -1.49424871 5.54574043 -2.75 7.3125 C-3.44609375 8.29863281 -4.1421875 9.28476563 -4.859375 10.30078125 C-6.77078318 12.7109693 -8.45209133 14.31860982 -11 16 C-10.09741337 10.13318689 -5.75641955 5.38248948 -2 1 C-1.34 0.67 -0.68 0.34 0 0 Z " fill="#207DBE" transform="translate(130,89)"/>
<path d="M0 0 C4.75 0.75 4.75 0.75 7 3 C7.46376812 10.30434783 7.46376812 10.30434783 5 14 C4.01 13.67 3.02 13.34 2 13 C2.33 12.67 2.66 12.34 3 12 C3.07179964 10.48071962 3.08392007 8.95832518 3.0625 7.4375 C3.04896484 6.19806641 3.04896484 6.19806641 3.03515625 4.93359375 C3.02355469 4.29550781 3.01195313 3.65742188 3 3 C2.01 2.67 1.02 2.34 0 2 C0 1.34 0 0.68 0 0 Z " fill="#E9F0F6" transform="translate(79,140)"/>
<path d="M0 0 C0.66 0 1.32 0 2 0 C2.75 1.625 2.75 1.625 3 4 C1.4375 7.25 1.4375 7.25 -1 10 C-4.25 10.375 -4.25 10.375 -7 10 C-6.401875 9.278125 -5.80375 8.55625 -5.1875 7.8125 C-2.9647189 5.08685797 -2.9647189 5.08685797 -1.375 2.1875 C-0.694375 1.1046875 -0.694375 1.1046875 0 0 Z " fill="#187BBE" transform="translate(190,100)"/>
<path d="M0 0 C0.66 0 1.32 0 2 0 C2.33 0.99 2.66 1.98 3 3 C3.99 3.33 4.98 3.66 6 4 C6 6.64 6 9.28 6 12 C5.67 12 5.34 12 5 12 C5 9.69 5 7.38 5 5 C3.68 5 2.36 5 1 5 C1 5.66 1 6.32 1 7 C1.66 7 2.32 7 3 7 C2.67 7.99 2.34 8.98 2 10 C1.34 10 0.68 10 0 10 C-1.49106457 7.01787087 -1.11941467 4.28390342 -1 1 C-0.67 0.67 -0.34 0.34 0 0 Z " fill="#3487C3" transform="translate(103,142)"/>
<path d="M0 0 C0.66 0 1.32 0 2 0 C2 4.62 2 9.24 2 14 C0.68 13.67 -0.64 13.34 -2 13 C-2 11.35 -2 9.7 -2 8 C-1.67 8 -1.34 8 -1 8 C-0.67 5.36 -0.34 2.72 0 0 Z " fill="#F6F9FB" transform="translate(145,140)"/>
<path d="M0 0 C0.99 0.33 1.98 0.66 3 1 C3 3.97 3 6.94 3 10 C1.68 9.67 0.36 9.34 -1 9 C-1.09765625 2.84765625 -1.09765625 2.84765625 -1 1 C-0.67 0.67 -0.34 0.34 0 0 Z " fill="#1F7EBE" transform="translate(80,142)"/>
<path d="M0 0 C1.2065625 0.0309375 1.2065625 0.0309375 2.4375 0.0625 C3.0975 1.7125 3.7575 3.3625 4.4375 5.0625 C3.4475 5.0625 2.4575 5.0625 1.4375 5.0625 C0.7775 4.4025 0.1175 3.7425 -0.5625 3.0625 C-0.8925 5.7025 -1.2225 8.3425 -1.5625 11.0625 C-1.8925 11.0625 -2.2225 11.0625 -2.5625 11.0625 C-3.5625 4.4375 -3.5625 4.4375 -3.5625 1.0625 C-2.5625 0.0625 -2.5625 0.0625 0 0 Z " fill="#D2E0EF" transform="translate(154.5625,139.9375)"/>
<path d="M0 0 C0.66 0 1.32 0 2 0 C2 4.29 2 8.58 2 13 C0.68 13 -0.64 13 -2 13 C-2 11.68 -2 10.36 -2 9 C-1.34 9 -0.68 9 0 9 C0 6.03 0 3.06 0 0 Z " fill="#FBFCFD" transform="translate(95,141)"/>
<path d="M0 0 C3.36175396 4.48233861 3.36175396 4.48233861 3.625 8.625 C3.83281554 11.93785175 3.83281554 11.93785175 5 15 C3.35 14.67 1.7 14.34 0 14 C0 9.38 0 4.76 0 0 Z " fill="#438DC6" transform="translate(147,140)"/>
<path d="M0 0 C-0.33 1.65 -0.66 3.3 -1 5 C-2.98 5.33 -4.96 5.66 -7 6 C-7.33 4.02 -7.66 2.04 -8 0 C-5.13822943 -1.43088528 -3.06624227 -0.59991697 0 0 Z " fill="#EAF1F7" transform="translate(53,148)"/>
<path d="M0 0 C0.99 0.33 1.98 0.66 3 1 C3 3.97 3 6.94 3 10 C2.01 10 1.02 10 0 10 C0 6.7 0 3.4 0 0 Z " fill="#0972BA" transform="translate(130,142)"/>
<path d="M0 0 C0.66 0.33 1.32 0.66 2 1 C-1.33333333 4.33333333 -4.66666667 7.66666667 -8 11 C-8.66 10.67 -9.32 10.34 -10 10 C-8.90033225 8.70450101 -7.79508199 7.41373929 -6.6875 6.125 C-6.07261719 5.40570313 -5.45773438 4.68640625 -4.82421875 3.9453125 C-3 2 -3 2 0 0 Z " fill="#217CBF" transform="translate(52,90)"/>
<path d="M0 0 C0.33 0 0.66 0 1 0 C1.1953125 2.01822917 1.390625 4.03645833 1.5859375 6.0546875 C1.86374749 8.22668245 1.86374749 8.22668245 4 10 C2.0625 10.5625 2.0625 10.5625 0 11 C-1 10 -1 10 -1.1328125 7.96875 C-1.13023437 7.1540625 -1.12765625 6.339375 -1.125 5.5 C-1.12757813 4.6853125 -1.13015625 3.870625 -1.1328125 3.03125 C-1 1 -1 1 0 0 Z " fill="#F8FAFC" transform="translate(151,143)"/>
<path d="M0 0 C2.475 0.495 2.475 0.495 5 1 C5.33 1.99 5.66 2.98 6 4 C5.67 4.66 5.34 5.32 5 6 C3.35 6 1.7 6 0 6 C1.32 5.67 2.64 5.34 4 5 C2.68 4.67 1.36 4.34 0 4 C0 2.68 0 1.36 0 0 Z " fill="#AED0E6" transform="translate(174,146)"/>
<path d="M0 0 C0.33 0.99 0.66 1.98 1 3 C-1.97 5.31 -4.94 7.62 -8 10 C-8.66 9.67 -9.32 9.34 -10 9 C-6.85281112 5.7317654 -3.50647501 2.8689341 0 0 Z " fill="#1179BC" transform="translate(161,83)"/>
<path d="M0 0 C0.33 1.65 0.66 3.3 1 5 C-2.68754757 4.50168276 -4.60490662 3.89932357 -7 1 C-4.50935112 0.31292445 -2.62113708 0 0 0 Z " fill="#CCDEEE" transform="translate(175,140)"/>
<path d="M0 0 C0.99 0 1.98 0 3 0 C3.33 0.99 3.66 1.98 4 3 C4.66 2.01 5.32 1.02 6 0 C6.99 0 7.98 0 9 0 C8.3125 2.4375 8.3125 2.4375 7 5 C4.375 5.8125 4.375 5.8125 2 6 C2 4.35 2 2.7 2 1 C1.34 0.67 0.68 0.34 0 0 Z " fill="#CDDEEE" transform="translate(116,140)"/>
<path d="M0 0 C2.76223278 2.76223278 2.57856291 5.20706617 3 9 C2.01 9.33 1.02 9.66 0 10 C0 6.7 0 3.4 0 0 Z " fill="#468FC6" transform="translate(90,145)"/>
<path d="M0 0 C1.32 0 2.64 0 4 0 C4 2.31 4 4.62 4 7 C3.01 6.67 2.02 6.34 1 6 C1.33 4.68 1.66 3.36 2 2 C1.34 2 0.68 2 0 2 C0 1.34 0 0.68 0 0 Z " fill="#FAFBFC" transform="translate(104,147)"/>
<path d="M0 0 C0.99 0 1.98 0 3 0 C2.25 4.75 2.25 4.75 0 7 C-1.125 2.25 -1.125 2.25 0 0 Z " fill="#187BBE" transform="translate(79,97)"/>
<path d="M0 0 C0.66 0.66 1.32 1.32 2 2 C0.1875 4 0.1875 4 -2 6 C-2.99 6 -3.98 6 -5 6 C-4.75 4.125 -4.75 4.125 -4 2 C-1.9375 0.75 -1.9375 0.75 0 0 Z " fill="#E3EBF5" transform="translate(16,90)"/>
<path d="M0 0 C0 0.66 0 1.32 0 2 C-1.75 3.6875 -1.75 3.6875 -4 5 C-6.25 4.6875 -6.25 4.6875 -8 4 C-3.375 0 -3.375 0 0 0 Z " fill="#8CB7DA" transform="translate(119,85)"/>
<path d="M0 0 C1.09658936 3.28976808 0.79953138 4.71303767 0 8 C-1.32 8.33 -2.64 8.66 -4 9 C-3.46930939 5.17902761 -2.50298434 2.93828597 0 0 Z " fill="#A1C2DE" transform="translate(77,100)"/>
<path d="M0 0 C0.99 0.33 1.98 0.66 3 1 C1.35 2.98 -0.3 4.96 -2 7 C-2.33 6.01 -2.66 5.02 -3 4 C-1.5625 1.8125 -1.5625 1.8125 0 0 Z " fill="#1077BD" transform="translate(122,98)"/>
<path d="M0 0 C2.375 0.25 2.375 0.25 5 1 C6.3125 3.0625 6.3125 3.0625 7 5 C4.03 4.505 4.03 4.505 1 4 C0.67 2.68 0.34 1.36 0 0 Z " fill="#BCD3E8" transform="translate(51,140)"/>
<path d="M0 0 C5.53846154 -0.36923077 5.53846154 -0.36923077 7.875 1.5 C8.24625 1.995 8.6175 2.49 9 3 C8.34 3.66 7.68 4.32 7 5 C7 4.34 7 3.68 7 3 C6.01 3 5.02 3 4 3 C4 2.34 4 1.68 4 1 C2.68 0.67 1.36 0.34 0 0 Z " fill="#BBD3E7" transform="translate(158,80)"/>
</svg>
