<?xml version="1.0" encoding="UTF-8"?>
<svg version="1.1" xmlns="http://www.w3.org/2000/svg" width="180" height="180">
<path d="M0 0 C59.4 0 118.8 0 180 0 C180 59.4 180 118.8 180 180 C120.6 180 61.2 180 0 180 C0 120.6 0 61.2 0 0 Z " fill="#FCFCFC" transform="translate(0,0)"/>
<path d="M0 0 C-2.51931675 2.0154534 -5.02880087 4.02125779 -7.625 5.9375 C-12.95564021 10.56674019 -14.15305775 16.40377769 -16 23 C-9.73 23 -3.46 23 3 23 C0.66582648 33.50378083 -2.73752614 43.74651073 -6 54 C-21.84 54 -37.68 54 -54 54 C-51.30157066 36.46020926 -45.40844207 23.34416386 -31.25 12.25 C-21.99741237 5.64100884 -11.69620018 -0.57054635 0 0 Z " fill="#F8991F" transform="translate(69,64)"/>
<path d="M0 0 C1.32 0 2.64 0 4 0 C4.99 2.31 5.98 4.62 7 7 C8.89213369 4.61426621 10.02391783 2.92824652 11 0 C12.32 0 13.64 0 15 0 C15 5.28 15 10.56 15 16 C15.94875 14.1025 16.8975 12.205 17.875 10.25 C19.58333333 6.83333333 21.29166667 3.41666667 23 0 C24.32 0 25.64 0 27 0 C27.83790789 1.78953185 28.67019396 3.58169695 29.5 5.375 C29.9640625 6.37273437 30.428125 7.37046875 30.90625 8.3984375 C32 11 32 11 32 13 C32.66 13 33.32 13 34 13 C34 12.01 34 11.02 34 10 C36.64 10.33 39.28 10.66 42 11 C42 10.34 42 9.68 42 9 C41.236875 9.061875 40.47375 9.12375 39.6875 9.1875 C37 9 37 9 35.125 7.8125 C34 6 34 6 34.25 3.375 C35 1 35 1 36 0 C37.51928038 -0.07179964 39.04167482 -0.08392007 40.5625 -0.0625 C41.38878906 -0.05347656 42.21507812 -0.04445313 43.06640625 -0.03515625 C43.70449219 -0.02355469 44.34257813 -0.01195313 45 0 C45 0.99 45 1.98 45 3 C42.69 3 40.38 3 38 3 C38 3.66 38 4.32 38 5 C39.7015625 5.2165625 39.7015625 5.2165625 41.4375 5.4375 C45 6 45 6 46 7 C46.29386153 10.72224599 46.14809171 11.77786243 44 15 C50.07027358 17.1583195 55.59370576 17.20852314 62 17 C62 17.99 62 18.98 62 20 C59.69 20 57.38 20 55 20 C55 20.66 55 21.32 55 22 C57.31 22 59.62 22 62 22 C62 23.32 62 24.64 62 26 C59.69 26 57.38 26 55 26 C55 26.66 55 27.32 55 28 C57.31 28 59.62 28 62 28 C62 28.99 62 29.98 62 31 C58.56265937 31.08703823 55.12560163 31.14040272 51.6875 31.1875 C50.71103516 31.21263672 49.73457031 31.23777344 48.72851562 31.26367188 C47.32182617 31.27817383 47.32182617 31.27817383 45.88671875 31.29296875 C45.02264404 31.3086792 44.15856934 31.32438965 43.26831055 31.34057617 C40.51128052 30.92662107 39.69389472 30.1649876 38 28 C37.505 27.01 37.505 27.01 37 26 C36.505 28.475 36.505 28.475 36 31 C32.32579134 30.69381595 31.21864487 30.24228216 28.6875 27.4375 C28.130625 26.633125 27.57375 25.82875 27 25 C26.67 26.98 26.34 28.96 26 31 C24.68 31 23.36 31 22 31 C21.505 28.525 21.505 28.525 21 26 C20.71125 26.639375 20.4225 27.27875 20.125 27.9375 C19 30 19 30 17 31 C9.62439024 31.46829268 9.62439024 31.46829268 7 29.5 C6.67 29.005 6.34 28.51 6 28 C5.34 28.99 4.68 29.98 4 31 C0.96119587 31.64005172 -1.94237378 31.49280423 -5 31 C-7.0625 29.4375 -7.0625 29.4375 -8 27 C-8.63484487 20.96897375 -8.63484487 20.96897375 -6.8125 18.1875 C-5 17 -5 17 0 15 C0 10.05 0 5.1 0 0 Z " fill="#E6E8EC" transform="translate(78,87)"/>
<path d="M0 0 C1.32 0 2.64 0 4 0 C4.99 2.31 5.98 4.62 7 7 C8.89213369 4.61426621 10.02391783 2.92824652 11 0 C12.32 0 13.64 0 15 0 C15 5.61 15 11.22 15 17 C12.69 17.66 10.38 18.32 8 19 C6.3589118 20.6410882 6.40731882 22.75974648 6 25 C5.11111111 29.88888889 5.11111111 29.88888889 4 31 C-3.75595688 31.94245691 -3.75595688 31.94245691 -7.0625 29.4375 C-8.34672087 26.09852573 -8.38673867 23.54510445 -8 20 C-5.87373317 16.75464536 -3.85035082 16.54014033 0 15 C0 10.05 0 5.1 0 0 Z " fill="#F7F8F9" transform="translate(78,87)"/>
<path d="M0 0 C8.49609375 -0.09765625 8.49609375 -0.09765625 11 0 C12 1 12 1 12.125 3.3125 C12 6 12 6 11.4375 8.125 C10.77876382 10.20883241 10.77876382 10.20883241 12 13 C12.66 13 13.32 13 14 13 C14 15.31 14 17.62 14 20 C12.68 20 11.36 20 10 20 C10 23.63 10 27.26 10 31 C8.68 31 7.36 31 6 31 C6 27.37 6 23.74 6 20 C4.68 20 3.36 20 2 20 C1.67 21.65 1.34 23.3 1 25 C-0.65 25.33 -2.3 25.66 -4 26 C-4 25.01 -4 24.02 -4 23 C-3.34 23 -2.68 23 -2 23 C-2 22.01 -2 21.02 -2 20 C-3.32 20 -4.64 20 -6 20 C-6 23.63 -6 27.26 -6 31 C-6.99 31 -7.98 31 -9 31 C-9 26.05 -9 21.1 -9 16 C-6.36 15.67 -3.72 15.34 -1 15 C-0.67 10.05 -0.34 5.1 0 0 Z " fill="#EFF0F3" transform="translate(151,87)"/>
<path d="M0 0 C-0.99 1.98 -1.98 3.96 -3 6 C-1.02 6 0.96 6 3 6 C1.125 13.625 1.125 13.625 0 17 C-5.28 17 -10.56 17 -16 17 C-14.89426011 9.2598208 -13.38867231 7.08042199 -8 2 C-3.69230769 -1.23076923 -3.69230769 -1.23076923 0 0 Z " fill="#F89E2A" transform="translate(74,67)"/>
<path d="M0 0 C2 1 2 1 3 3 C3.51981506 6.56444611 3.63102777 9.73794446 2 13 C-1.26417672 14.63208836 -4.43875614 14.65289471 -8 14 C-10 12.4375 -10 12.4375 -11 10 C-11.35773097 6.60155579 -11.58904125 4.14126742 -10 1.0625 C-6.75629493 -0.66071832 -3.5838959 -0.52265149 0 0 Z " fill="#354469" transform="translate(95,104)"/>
<path d="M0 0 C1.32 0 2.64 0 4 0 C4.99 2.31 5.98 4.62 7 7 C8.89213369 4.61426621 10.02391783 2.92824652 11 0 C12.32 0 13.64 0 15 0 C15 4.62 15 9.24 15 14 C14.01 14 13.02 14 12 14 C11.67 12.68 11.34 11.36 11 10 C10.34 11.32 9.68 12.64 9 14 C8.01 14 7.02 14 6 14 C5.34 12.68 4.68 11.36 4 10 C3.67 11.32 3.34 12.64 3 14 C2.01 14 1.02 14 0 14 C0 9.38 0 4.76 0 0 Z " fill="#25355D" transform="translate(78,87)"/>
<path d="M0 0 C5 1 5 1 7.3125 4.0625 C7.869375 5.031875 8.42625 6.00125 9 7 C9.33 4.69 9.66 2.38 10 0 C10.99 0 11.98 0 13 0 C13 4.62 13 9.24 13 14 C8.40962044 12.85240511 7.66330818 11.70960782 5 8 C4.67 9.98 4.34 11.96 4 14 C2.68 14 1.36 14 0 14 C0 9.38 0 4.76 0 0 Z " fill="#303F65" transform="translate(100,104)"/>
<path d="M0 0 C3.63 0 7.26 0 11 0 C11 0.99 11 1.98 11 3 C8.69 3 6.38 3 4 3 C4 3.66 4 4.32 4 5 C5.98 5 7.96 5 10 5 C10 6.32 10 7.64 10 9 C8.02 9 6.04 9 4 9 C4 9.66 4 10.32 4 11 C6.31 11 8.62 11 11 11 C11 11.99 11 12.98 11 14 C7.37 14 3.74 14 0 14 C0 9.38 0 4.76 0 0 Z " fill="#37466B" transform="translate(139,87)"/>
<path d="M0 0 C1.23556641 0.01740234 1.23556641 0.01740234 2.49609375 0.03515625 C3.32238281 0.04417969 4.14867188 0.05320312 5 0.0625 C5.63808594 0.07410156 6.27617188 0.08570312 6.93359375 0.09765625 C6.93359375 1.08765625 6.93359375 2.07765625 6.93359375 3.09765625 C4.62359375 3.09765625 2.31359375 3.09765625 -0.06640625 3.09765625 C-0.06640625 3.75765625 -0.06640625 4.41765625 -0.06640625 5.09765625 C1.06796875 5.24203125 2.20234375 5.38640625 3.37109375 5.53515625 C6.93359375 6.09765625 6.93359375 6.09765625 7.93359375 7.09765625 C8.12109375 9.53515625 8.12109375 9.53515625 7.93359375 12.09765625 C5.93359375 14.09765625 5.93359375 14.09765625 3.76953125 14.29296875 C2.55136719 14.25816406 2.55136719 14.25816406 1.30859375 14.22265625 C0.49132812 14.20460938 -0.3259375 14.1865625 -1.16796875 14.16796875 C-1.79445313 14.14476563 -2.4209375 14.1215625 -3.06640625 14.09765625 C-3.06640625 13.10765625 -3.06640625 12.11765625 -3.06640625 11.09765625 C-0.75640625 11.09765625 1.55359375 11.09765625 3.93359375 11.09765625 C3.93359375 10.43765625 3.93359375 9.77765625 3.93359375 9.09765625 C3.17046875 9.15953125 2.40734375 9.22140625 1.62109375 9.28515625 C-1.06640625 9.09765625 -1.06640625 9.09765625 -2.94140625 7.91015625 C-4.06640625 6.09765625 -4.06640625 6.09765625 -3.81640625 3.47265625 C-2.76098256 0.13048122 -2.76098256 0.13048122 0 0 Z " fill="#38476B" transform="translate(116.06640625,86.90234375)"/>
<path d="M0 0 C3.3 0 6.6 0 10 0 C10 0.99 10 1.98 10 3 C7.69 3 5.38 3 3 3 C3 3.66 3 4.32 3 5 C5.31 5 7.62 5 10 5 C10 6.32 10 7.64 10 9 C7.69 9 5.38 9 3 9 C3 9.66 3 10.32 3 11 C5.31 11 7.62 11 10 11 C10 11.99 10 12.98 10 14 C6.7 14 3.4 14 0 14 C0 9.38 0 4.76 0 0 Z " fill="#344368" transform="translate(130,104)"/>
<path d="M0 0 C7.71484375 -0.09765625 7.71484375 -0.09765625 10 0 C11 1 11 1 11.125 3.3125 C11 6 11 6 10.375 8.0625 C9.87811029 10.6297635 10.67320572 11.81469177 12 14 C9.6875 13.875 9.6875 13.875 7 13 C5.1875 9.9375 5.1875 9.9375 4 7 C5.32 5.68 6.64 4.36 8 3 C6.35 3 4.7 3 3 3 C3 6.63 3 10.26 3 14 C2.01 14 1.02 14 0 14 C0 9.38 0 4.76 0 0 Z " fill="#25365D" transform="translate(152,87)"/>
<path d="M0 0 C1.32 0 2.64 0 4 0 C5.98 4.29 7.96 8.58 10 13 C8.68 13.33 7.36 13.66 6 14 C5.67 12.68 5.34 11.36 5 10 C3.02 10 1.04 10 -1 10 C-1.33 11.32 -1.66 12.64 -2 14 C-3.32 13.67 -4.64 13.34 -6 13 C-4.02 8.71 -2.04 4.42 0 0 Z " fill="#38476B" transform="translate(101,87)"/>
<path d="M0 0 C1.21236328 0.04060547 1.21236328 0.04060547 2.44921875 0.08203125 C3.06410156 0.11683594 3.67898437 0.15164062 4.3125 0.1875 C4.3125 1.1775 4.3125 2.1675 4.3125 3.1875 C2.0025 3.5175 -0.3075 3.8475 -2.6875 4.1875 C-2.6875 6.1675 -2.6875 8.1475 -2.6875 10.1875 C-0.3775 10.5175 1.9325 10.8475 4.3125 11.1875 C4.3125 12.1775 4.3125 13.1675 4.3125 14.1875 C-3.87212594 14.80520762 -3.87212594 14.80520762 -6.75 12.625 C-8.03422087 9.28602573 -8.07423867 6.73260445 -7.6875 3.1875 C-5.44280069 0.08055112 -3.72824702 -0.1620977 0 0 Z " fill="#324166" transform="translate(77.6875,103.8125)"/>
<path d="M0 0 C0 0.99 0 1.98 0 3 C-2.31 3.33 -4.62 3.66 -7 4 C-7 5.65 -7 7.3 -7 9 C-4.69 9.66 -2.38 10.32 0 11 C0 11.99 0 12.98 0 14 C-7.34159292 14.36106195 -7.34159292 14.36106195 -9.9375 12.9375 C-11.60093625 9.90417507 -11.93957505 7.44422213 -12 4 C-9.03252355 -1.0318079 -5.26980709 -0.35132047 0 0 Z " fill="#324167" transform="translate(127,104)"/>
<path d="M0 0 C6.8359375 -0.1953125 6.8359375 -0.1953125 9 0 C9.66 0.66 10.32 1.32 11 2 C10.625 5.125 10.625 5.125 10 8 C8.35 8.33 6.7 8.66 5 9 C5 8.01 5 7.02 5 6 C5.66 6 6.32 6 7 6 C7 5.01 7 4.02 7 3 C5.68 3 4.36 3 3 3 C3 6.63 3 10.26 3 14 C2.01 14 1.02 14 0 14 C0 9.38 0 4.76 0 0 Z " fill="#26375E" transform="translate(142,104)"/>
<path d="M0 0 C3.96 0 7.92 0 12 0 C12 0.99 12 1.98 12 3 C10.68 3 9.36 3 8 3 C8 6.63 8 10.26 8 14 C6.68 14 5.36 14 4 14 C4 10.37 4 6.74 4 3 C2.68 3 1.36 3 0 3 C0 2.01 0 1.02 0 0 Z " fill="#37466B" transform="translate(125,87)"/>
<path d="M0 0 C3 3.75 3 3.75 3 6 C3.99 6 4.98 6 6 6 C6.66 4.02 7.32 2.04 8 0 C8.33 0 8.66 0 9 0 C9 1.98 9 3.96 9 6 C9.99 6.33 10.98 6.66 12 7 C12 7.66 12 8.32 12 9 C10.4221875 9.433125 10.4221875 9.433125 8.8125 9.875 C5.77181289 10.77225193 2.91287656 11.76423419 0 13 C0.33 11.68 0.66 10.36 1 9 C-0.98 9 -2.96 9 -5 9 C-4.34 8.01 -3.68 7.02 -3 6 C-2.01 6 -1.02 6 0 6 C0 4.02 0 2.04 0 0 Z " fill="#E0E3E8" transform="translate(81,95)"/>
<path d="M0 0 C3.63 0 7.26 0 11 0 C11 0.99 11 1.98 11 3 C9.68 3 8.36 3 7 3 C7 6.63 7 10.26 7 14 C5.68 14 4.36 14 3 14 C3 10.37 3 6.74 3 3 C2.01 3 1.02 3 0 3 C0 2.01 0 1.02 0 0 Z " fill="#36456A" transform="translate(154,104)"/>
<path d="M0 0 C0.99 0.33 1.98 0.66 3 1 C2.34 1 1.68 1 1 1 C1 1.99 1 2.98 1 4 C1.61488281 3.96519531 2.22976562 3.93039063 2.86328125 3.89453125 C4.07564453 3.85392578 4.07564453 3.85392578 5.3125 3.8125 C6.51326172 3.76029297 6.51326172 3.76029297 7.73828125 3.70703125 C10.47851584 4.06198392 11.29171079 4.89366282 13 7 C10.98177083 7.45572917 8.96354167 7.91145833 6.9453125 8.3671875 C4.79280036 8.90474428 4.79280036 8.90474428 3 11 C2.53837573 13.43252661 2.53837573 13.43252661 2.375 16.125 C2.30023438 17.03507812 2.22546875 17.94515625 2.1484375 18.8828125 C2.09945312 19.58148438 2.05046875 20.28015625 2 21 C1.67 21 1.34 21 1 21 C1 16.05 1 11.1 1 6 C0.01 5.67 -0.98 5.34 -2 5 C-1.34 3.35 -0.68 1.7 0 0 Z " fill="#DEE1E7" transform="translate(112,97)"/>
<path d="M0 0 C2.31 0 4.62 0 7 0 C6.01 0.495 6.01 0.495 5 1 C4.67 1.99 4.34 2.98 4 4 C2.02678947 5.3726682 0.02456848 6.70427617 -2 8 C-2.515625 8.53625 -3.03125 9.0725 -3.5625 9.625 C-5.47672753 11.45600025 -7.52517189 12.1304658 -10 13 C-8.80984965 7.941861 -5.77101913 6.09113212 -1.6796875 3.33203125 C-1.12539062 2.89246094 -0.57109375 2.45289062 0 2 C0 1.34 0 0.68 0 0 Z " fill="#FEF2E4" transform="translate(67,63)"/>
<path d="M0 0 C1.2065625 0.0309375 1.2065625 0.0309375 2.4375 0.0625 C3.5625 5.8125 3.5625 5.8125 2.4375 8.0625 C0.77138095 8.105221 -0.89632885 8.10313832 -2.5625 8.0625 C-3.5625 7.0625 -3.5625 7.0625 -3.6875 4.0625 C-3.52180824 0.08589776 -3.52180824 0.08589776 0 0 Z " fill="#F4F4F6" transform="translate(91.5625,106.9375)"/>
<path d="M0 0 C0.33 0 0.66 0 1 0 C1 4.62 1 9.24 1 14 C5.29 14.66 9.58 15.32 14 16 C14 16.33 14 16.66 14 17 C10.37 17 6.74 17 3 17 C2.67 17.99 2.34 18.98 2 20 C1.34 19.34 0.68 18.68 0 18 C-2.20250992 17.53993654 -2.20250992 17.53993654 -4.625 17.375 C-5.44226563 17.30023438 -6.25953125 17.22546875 -7.1015625 17.1484375 C-7.72804687 17.09945312 -8.35453125 17.05046875 -9 17 C-9 16.67 -9 16.34 -9 16 C-6.36 15.67 -3.72 15.34 -1 15 C-0.67 10.05 -0.34 5.1 0 0 Z " fill="#CED1DA" transform="translate(151,87)"/>
<path d="M0 0 C3.875 0.875 3.875 0.875 5 2 C5.23880597 9.52238806 5.23880597 9.52238806 4 12 C1.69 11.67 -0.62 11.34 -3 11 C-1.68 10.67 -0.36 10.34 1 10 C1.08004482 6.4780279 1.04005702 3.38018531 0 0 Z " fill="#28385F" transform="translate(93,105)"/>
<path d="M0 0 C1.32 0 2.64 0 4 0 C4 0.99 4 1.98 4 3 C3.34 3.66 2.68 4.32 2 5 C2.66 5.66 3.32 6.32 4 7 C3.01 7 2.02 7 1 7 C0.67 8.32 0.34 9.64 0 11 C0 7.37 0 3.74 0 0 Z " fill="#CACED7" transform="translate(145,107)"/>
<path d="M0 0 C1.65 0 3.3 0 5 0 C4 3 4 3 2 5 C1.60235737 6.98821313 1.26224651 8.98944339 1 11 C0.67 11 0.34 11 0 11 C0 7.37 0 3.74 0 0 Z " fill="#B9BECB" transform="translate(155,90)"/>
<path d="M0 0 C1.98 0 3.96 0 6 0 C6 0.99 6 1.98 6 3 C3.69 3 1.38 3 -1 3 C-0.67 2.01 -0.34 1.02 0 0 Z " fill="#293A60" transform="translate(117,87)"/>
<path d="M0 0 C2.31 0 4.62 0 7 0 C6.01 0.495 6.01 0.495 5 1 C4.67 1.99 4.34 2.98 4 4 C3.01 4.33 2.02 4.66 1 5 C0.67 3.35 0.34 1.7 0 0 Z " fill="#FCE0BC" transform="translate(67,63)"/>
<path d="M0 0 C1.125 3.75 1.125 3.75 0 6 C-1.32 5.67 -2.64 5.34 -4 5 C-2.68 3.35 -1.36 1.7 0 0 Z " fill="#293960" transform="translate(99,95)"/>
</svg>
