<?xml version="1.0" encoding="UTF-8"?>
<svg version="1.1" xmlns="http://www.w3.org/2000/svg" width="569" height="500">
<path d="M0 0 C8.22500526 6.74914746 11.2200719 16.36242659 12.46511841 26.64624023 C12.97907141 32.80831593 12.93393549 39.00706887 13.00390625 45.1875 C13.02450953 46.7230684 13.04550681 48.25863156 13.06687927 49.79418945 C13.12175185 53.81194787 13.17131282 57.82975447 13.21972656 61.84759521 C13.27019781 65.95703355 13.32574935 70.06640297 13.38085938 74.17578125 C13.48801433 82.22129716 13.58908157 90.26687247 13.6875 98.3125 C17.9775 99.3025 22.2675 100.2925 26.6875 101.3125 C26.6875 104.9425 26.6875 108.5725 26.6875 112.3125 C6.8875 112.3125 -12.9125 112.3125 -33.3125 112.3125 C-33.3125 108.6825 -33.3125 105.0525 -33.3125 101.3125 C-28.3625 100.3225 -23.4125 99.3325 -18.3125 98.3125 C-18.37560456 89.47123782 -18.45117204 80.6303171 -18.54821491 71.789361 C-18.59279554 67.68340612 -18.63207811 63.57754764 -18.65893555 59.47143555 C-18.68509222 55.50307285 -18.72558013 51.53508365 -18.77568626 47.56695366 C-18.79227191 46.05887971 -18.80383759 44.55074128 -18.81011391 43.04258919 C-18.52275042 29.32431057 -18.52275042 29.32431057 -24.8125 17.75 C-31.64218876 14.94494926 -37.97006749 15.51599472 -44.75 18.25 C-45.53246094 18.60964844 -46.31492187 18.96929687 -47.12109375 19.33984375 C-49.18069456 20.25399812 -51.11540549 20.83704675 -53.3125 21.3125 C-54.66346497 9.28724386 -54.66346497 9.28724386 -51.73046875 5 C-37.60885372 -6.39906943 -15.5976588 -10.65985248 0 0 Z " fill="#7FBE25" transform="translate(130.3125,192.6875)"/>
<path d="M0 0 C0 33.66 0 67.32 0 102 C4.62 102.99 9.24 103.98 14 105 C14 108.63 14 112.26 14 116 C-5.8 116 -25.6 116 -46 116 C-46 112.37 -46 108.74 -46 105 C-40.72 104.01 -35.44 103.02 -30 102 C-30 76.59 -30 51.18 -30 25 C-35.61 24.34 -41.22 23.68 -47 23 C-47 19.7 -47 16.4 -47 13 C-38.57317259 9.46161088 -30.1251471 5.9836908 -21.625 2.625 C-20.48933594 2.16222656 -19.35367188 1.69945312 -18.18359375 1.22265625 C-17.08402344 0.79082031 -15.98445313 0.35898438 -14.8515625 -0.0859375 C-13.87010254 -0.4782959 -12.88864258 -0.8706543 -11.87744141 -1.27490234 C-7.51681856 -2.37375266 -4.18843205 -1.39614402 0 0 Z " fill="#7FBD24" transform="translate(71,189)"/>
<path d="M0 0 C0.33 33.66 0.66 67.32 1 102 C5.29 102.99 9.58 103.98 14 105 C14 108.63 14 112.26 14 116 C-0.52 116 -15.04 116 -30 116 C-30 85.97 -30 55.94 -30 25 C-35.61 24.34 -41.22 23.68 -47 23 C-47 19.7 -47 16.4 -47 13 C-38.43681775 9.37478256 -29.82067316 5.91969394 -21.125 2.625 C-19.94164062 2.16222656 -18.75828125 1.69945312 -17.5390625 1.22265625 C-16.394375 0.79082031 -15.2496875 0.35898438 -14.0703125 -0.0859375 C-13.04695801 -0.4782959 -12.02360352 -0.8706543 -10.96923828 -1.27490234 C-6.9393646 -2.25901062 -3.7102932 -1.8551466 0 0 Z " fill="#0070BD" transform="translate(289,189)"/>
<path d="M0 0 C0.66 0 1.32 0 2 0 C2.00586624 0.56883408 2.01173248 1.13766815 2.01777649 1.72373962 C2.08202569 7.67820454 2.16652429 13.63214464 2.26245117 19.58618164 C2.29557536 21.80420993 2.32364569 24.02231997 2.34643555 26.24047852 C2.38021202 29.44061924 2.43253953 32.64001913 2.48828125 35.83984375 C2.49467117 36.82145981 2.5010611 37.80307587 2.50764465 38.81443787 C2.65810866 45.96203316 3.33071807 52.94939208 8.1875 58.5 C13.72133992 61.45138129 18.17610462 61.44065191 24.0625 59.8125 C28.41408576 58.36420644 32.08573803 56.36486661 36 54 C36.66 54 37.32 54 38 54 C39.20023534 66.95253971 39.20023534 66.95253971 36.60546875 71.37890625 C34.51040464 73.2862253 32.48474237 74.63790584 30 76 C29.13246094 76.47824219 28.26492187 76.95648438 27.37109375 77.44921875 C15.62811232 83.27894922 1.85238092 85.13957081 -10.94921875 81.74609375 C-18.8003583 78.88977441 -25.20375257 73.31485328 -29.1015625 65.90625 C-32.51112741 57.11148445 -32.05493707 47.50900093 -28.515625 38.84765625 C-24.23110716 30.79762144 -18.02850534 24.03310871 -11.8125 17.4375 C-7.43999255 12.76890149 -4.3578835 7.88138056 -1.375 2.23828125 C-0.92125 1.49964844 -0.4675 0.76101562 0 0 Z " fill="#0071BD" transform="translate(215,226)"/>
<path d="M0 0 C6.39154861 5.37471133 10.8411855 12.13031742 12.06640625 20.46484375 C12.63141546 30.83549667 7.06431518 39.53236165 0.75 47.3125 C-1.72439562 50.05501356 -4.27486446 52.72563049 -6.8215332 55.40087891 C-11.86662333 60.78710181 -15.94452822 66.70155645 -19.25 73.3125 C-19.91 73.3125 -20.57 73.3125 -21.25 73.3125 C-21.26458252 72.02150391 -21.27916504 70.73050781 -21.29418945 69.40039062 C-21.3524131 64.58436176 -21.42964414 59.76878871 -21.51245117 54.953125 C-21.5455876 52.8737735 -21.57365424 50.79433448 -21.59643555 48.71484375 C-21.63018951 45.71576854 -21.6825156 42.71748713 -21.73828125 39.71875 C-21.74467117 38.79759399 -21.7510611 37.87643799 -21.75764465 36.92736816 C-21.90084483 30.55880332 -22.43104981 24.04335799 -27.25 19.375 C-32.737088 16.4599845 -38.3408229 16.43476409 -44.21484375 18.20703125 C-46.14173604 18.92360223 -48.05940954 19.66567855 -49.96484375 20.4375 C-52.25 21.3125 -52.25 21.3125 -54.25 21.3125 C-55.44901559 9.15581419 -55.44901559 9.15581419 -52.890625 5.22265625 C-50.75652251 3.56034915 -48.71138989 2.43985415 -46.25 1.3125 C-45.25097656 0.84328125 -44.25195312 0.3740625 -43.22265625 -0.109375 C-29.23014721 -6.26677082 -13.79897949 -7.16485474 0 0 Z " fill="#7FBE24" transform="translate(203.25,191.6875)"/>
<path d="M0 0 C1.65 0 3.3 0 5 0 C5 0.99 5 1.98 5 3 C6.36125 2.7525 6.36125 2.7525 7.75 2.5 C13.13782475 1.71126689 18.56912556 1.91974077 24 2 C23.10105263 9.70526316 23.10105263 9.70526316 22.25 12.1875 C21.8617244 15.0024981 23.55672341 16.6330264 25 19 C25.3125 21.6875 25.3125 21.6875 25 24 C23 26 23 26 19.875 26.125 C18.451875 26.063125 18.451875 26.063125 17 26 C17 27.32 17 28.64 17 30 C15.35 30 13.7 30 12 30 C11.67 24.72 11.34 19.44 11 14 C11 19.28 11 24.56 11 30 C6.38 30 1.76 30 -3 30 C-3.33 26.7 -3.66 23.4 -4 20 C-4.66 20 -5.32 20 -6 20 C-5.6875 18.125 -5.6875 18.125 -5 16 C-4.01 15.34 -3.02 14.68 -2 14 C-2.99 13.67 -3.98 13.34 -5 13 C-5 12.01 -5 11.02 -5 10 C-3.35 10 -1.7 10 0 10 C0 9.01 0 8.02 0 7 C-1.32 7 -2.64 7 -4 7 C-4 5.68 -4 4.36 -4 3 C-2.68 3 -1.36 3 0 3 C0 2.01 0 1.02 0 0 Z M17 5 C17 7.31 17 9.62 17 12 C18.4606285 9.35261084 19 8.10551666 19 5 C18.34 5 17.68 5 17 5 Z M17 15 C17 17.64 17 20.28 17 23 C17.99 22.67 18.98 22.34 20 22 C19.42547254 18.06924356 19.42547254 18.06924356 17 15 Z M2 18 C2 18.99 2 19.98 2 21 C3.32 21 4.64 21 6 21 C6 20.01 6 19.02 6 18 C4.68 18 3.36 18 2 18 Z M2 24 C2 24.99 2 25.98 2 27 C3.32 27 4.64 27 6 27 C6 26.01 6 25.02 6 24 C4.68 24 3.36 24 2 24 Z " fill="#000000" transform="translate(414,187)"/>
<path d="M0 0 C1.8125 0.9375 1.8125 0.9375 3.1328125 2.328125 C5.09657634 4.20968477 7.10637135 5.34146 9.5 6.625 C10.30824219 7.06199219 11.11648438 7.49898437 11.94921875 7.94921875 C12.56410156 8.27535156 13.17898438 8.60148438 13.8125 8.9375 C13.4825 9.5975 13.1525 10.2575 12.8125 10.9375 C12.1525 10.9375 11.4925 10.9375 10.8125 10.9375 C10.4825 17.5375 10.1525 24.1375 9.8125 30.9375 C2.2225 30.9375 -5.3675 30.9375 -13.1875 30.9375 C-13.5175 24.3375 -13.8475 17.7375 -14.1875 10.9375 C-15.1775 10.9375 -16.1675 10.9375 -17.1875 10.9375 C-16.1875 7.9375 -16.1875 7.9375 -14.55078125 6.91015625 C-13.87402344 6.60980469 -13.19726562 6.30945313 -12.5 6 C-9.67988421 4.6984081 -7.5068878 3.45321824 -4.9375 1.625 C-2.1875 -0.0625 -2.1875 -0.0625 0 0 Z M0.8125 12.9375 C1.8125 14.9375 1.8125 14.9375 1.8125 14.9375 Z M5.8125 13.9375 C5.4825 14.5975 5.1525 15.2575 4.8125 15.9375 C5.4725 15.9375 6.1325 15.9375 6.8125 15.9375 C6.4825 15.2775 6.1525 14.6175 5.8125 13.9375 Z M-8.1875 26.9375 C-8.1875 27.2675 -8.1875 27.5975 -8.1875 27.9375 C-3.8975 27.9375 0.3925 27.9375 4.8125 27.9375 C4.8125 27.6075 4.8125 27.2775 4.8125 26.9375 C0.5225 26.9375 -3.7675 26.9375 -8.1875 26.9375 Z " fill="#000000" transform="translate(464.1875,186.0625)"/>
<path d="M0 0 C1.32 0 2.64 0 4 0 C4 1.32 4 2.64 4 4 C5.32 4 6.64 4 8 4 C8 2.68 8 1.36 8 0 C9.65 0 11.3 0 13 0 C13 1.32 13 2.64 13 4 C13.99 4 14.98 4 16 4 C16 4.99 16 5.98 16 7 C15.01 7 14.02 7 13 7 C13 7.66 13 8.32 13 9 C14.65 9 16.3 9 18 9 C18 10.32 18 11.64 18 13 C17.01 13 16.02 13 15 13 C15.515625 13.598125 16.03125 14.19625 16.5625 14.8125 C17.036875 15.534375 17.51125 16.25625 18 17 C17.67 17.99 17.34 18.98 17 20 C16.34 20 15.68 20 15 20 C14.67 20.99 14.34 21.98 14 23 C14.99 23 15.98 23 17 23 C16.125 28.875 16.125 28.875 15 30 C12.50761431 30.12653198 10.05529559 30.18519825 7.5625 30.1875 C6.52125977 30.20586914 6.52125977 30.20586914 5.45898438 30.22460938 C3.63779099 30.22989842 1.8171308 30.12169207 0 30 C-2 28 -2 28 -2.1953125 25.8359375 C-2.17210937 25.02382812 -2.14890625 24.21171875 -2.125 23.375 C-2.10695313 22.55773437 -2.08890625 21.74046875 -2.0703125 20.8984375 C-2.04710937 20.27195313 -2.02390625 19.64546875 -2 19 C-2.66 19 -3.32 19 -4 19 C-4.103125 19.886875 -4.20625 20.77375 -4.3125 21.6875 C-5.02096487 25.10101256 -5.88882698 27.23923528 -8 30 C-8.99 30 -9.98 30 -11 30 C-10.49540386 25.71093278 -9.94350927 21.88701855 -8 18 C-7.34 17.67 -6.68 17.34 -6 17 C-7.98 15.68 -9.96 14.36 -12 13 C-11.34 11.68 -10.68 10.36 -10 9 C-9.1646875 9.2784375 -9.1646875 9.2784375 -8.3125 9.5625 C-5.600867 10.07551165 -3.65628961 9.6640724 -1 9 C-1 8.34 -1 7.68 -1 7 C-1.721875 7.226875 -2.44375 7.45375 -3.1875 7.6875 C-6.75584692 8.08398299 -8.13871099 7.04377787 -11 5 C-10.67 3.68 -10.34 2.36 -10 1 C-6.85262818 1.69941596 -3.97411124 2.76078698 -1 4 C-0.67 2.68 -0.34 1.36 0 0 Z M4 7 C4 7.66 4 8.32 4 9 C5.32 9 6.64 9 8 9 C8 8.34 8 7.68 8 7 C6.68 7 5.36 7 4 7 Z M-4 13 C-4 13.99 -4 14.98 -4 16 C-3.34 15.01 -2.68 14.02 -2 13 C-2.66 13 -3.32 13 -4 13 Z M3 13 C3 13.33 3 13.66 3 14 C4.98 14 6.96 14 9 14 C9 13.67 9 13.34 9 13 C7.02 13 5.04 13 3 13 Z M3 18 C3 18.66 3 19.32 3 20 C4.98 20 6.96 20 9 20 C9 19.34 9 18.68 9 18 C7.02 18 5.04 18 3 18 Z M3 23 C3 23.99 3 24.98 3 26 C5.97 26 8.94 26 12 26 C12 25.01 12 24.02 12 23 C9.03 23 6.06 23 3 23 Z " fill="#000000" transform="translate(381,187)"/>
<path d="M0 0 C0.38969971 0.50249268 0.77939941 1.00498535 1.1809082 1.52270508 C0.8509082 2.18270508 0.5209082 2.84270508 0.1809082 3.52270508 C-2.14065777 3.92999735 -4.4759705 4.26709185 -6.8190918 4.52270508 C-3.8490918 4.85270508 -0.8790918 5.18270508 2.1809082 5.52270508 C2.1809082 6.84270508 2.1809082 8.16270508 2.1809082 9.52270508 C1.1909082 9.85270508 0.2009082 10.18270508 -0.8190918 10.52270508 C0.8309082 11.84270508 2.4809082 13.16270508 4.1809082 14.52270508 C3.8509082 15.51270508 3.5209082 16.50270508 3.1809082 17.52270508 C1.8609082 17.19270508 0.5409082 16.86270508 -0.8190918 16.52270508 C-0.8190918 20.48270508 -0.8190918 24.44270508 -0.8190918 28.52270508 C-7.7490918 28.52270508 -14.6790918 28.52270508 -21.8190918 28.52270508 C-21.8190918 24.56270508 -21.8190918 20.60270508 -21.8190918 16.52270508 C-23.1390918 16.85270508 -24.4590918 17.18270508 -25.8190918 17.52270508 C-25.8190918 16.20270508 -25.8190918 14.88270508 -25.8190918 13.52270508 C-23.8390918 12.53270508 -21.8590918 11.54270508 -19.8190918 10.52270508 C-22.7890918 10.02770508 -22.7890918 10.02770508 -25.8190918 9.52270508 C-25.4440918 7.58520508 -25.4440918 7.58520508 -24.8190918 5.52270508 C-24.1590918 5.19270508 -23.4990918 4.86270508 -22.8190918 4.52270508 C-23.1490918 3.53270508 -23.4790918 2.54270508 -23.8190918 1.52270508 C-20.21882807 0.9329875 -16.61380439 0.38066411 -13.0065918 -0.16479492 C-11.98243164 -0.33301758 -10.95827148 -0.50124023 -9.90307617 -0.67456055 C-8.92016602 -0.81958008 -7.93725586 -0.96459961 -6.92456055 -1.11401367 C-5.56560669 -1.32610474 -5.56560669 -1.32610474 -4.17919922 -1.54248047 C-1.8190918 -1.47729492 -1.8190918 -1.47729492 0 0 Z M-8.8190918 11.52270508 C-8.8190918 12.18270508 -8.8190918 12.84270508 -8.8190918 13.52270508 C-7.8290918 13.19270508 -6.8390918 12.86270508 -5.8190918 12.52270508 C-6.8090918 12.19270508 -7.7990918 11.86270508 -8.8190918 11.52270508 Z M-16.8190918 17.52270508 C-16.8190918 18.18270508 -16.8190918 18.84270508 -16.8190918 19.52270508 C-12.8590918 19.52270508 -8.8990918 19.52270508 -4.8190918 19.52270508 C-4.8190918 18.86270508 -4.8190918 18.20270508 -4.8190918 17.52270508 C-8.7790918 17.52270508 -12.7390918 17.52270508 -16.8190918 17.52270508 Z M-16.8190918 22.52270508 C-16.8190918 23.51270508 -16.8190918 24.50270508 -16.8190918 25.52270508 C-12.8590918 25.52270508 -8.8990918 25.52270508 -4.8190918 25.52270508 C-4.8190918 24.53270508 -4.8190918 23.54270508 -4.8190918 22.52270508 C-8.7790918 22.52270508 -12.7390918 22.52270508 -16.8190918 22.52270508 Z " fill="#000000" transform="translate(356.819091796875,188.477294921875)"/>
<path d="M0 0 C0.99 0 1.98 0 3 0 C6.00540449 0.29067815 9.00043767 0.65222466 12 1 C12.495 9.415 12.495 9.415 13 18 C11.68 18 10.36 18 9 18 C9 16.68 9 15.36 9 14 C2.73 14 -3.54 14 -10 14 C-10 15.32 -10 16.64 -10 18 C-11.65 18 -13.3 18 -15 18 C-15 15.69 -15 13.38 -15 11 C-14.34 11 -13.68 11 -13 11 C-13 7.7 -13 4.4 -13 1 C-8.28711496 -1.50372018 -5.09379347 -0.82157959 0 0 Z M-9 3 C-9 3.33 -9 3.66 -9 4 C-7.35 4 -5.7 4 -4 4 C-4 3.67 -4 3.34 -4 3 C-5.65 3 -7.3 3 -9 3 Z M3 3 C3 3.33 3 3.66 3 4 C4.65 4 6.3 4 8 4 C8 3.67 8 3.34 8 3 C6.35 3 4.7 3 3 3 Z M3 6 C3 6.66 3 7.32 3 8 C4.65 8 6.3 8 8 8 C5.61837991 6.58614089 5.61837991 6.58614089 3 6 Z M-9 7 C-5 8 -5 8 -5 8 Z M-5 8 C-4 10 -4 10 -4 10 Z M-9 10 C-5 11 -5 11 -5 11 Z M4 10 C8 11 8 11 8 11 Z " fill="#000000" transform="translate(540,188)"/>
<path d="M0 0 C3.91610484 -0.17426756 7.83121497 -0.28084155 11.75 -0.375 C12.86117188 -0.42527344 13.97234375 -0.47554688 15.1171875 -0.52734375 C23.18073566 -0.67307052 23.18073566 -0.67307052 25.65820312 1.36230469 C26.765625 3.0234375 26.765625 3.0234375 28 6 C28.70125 5.01 29.4025 4.02 30.125 3 C32.32959535 0.30900395 32.64418661 0.04028076 36.3125 -0.375 C37.199375 -0.25125 38.08625 -0.1275 39 0 C37.9172128 3.24836161 36.56253312 5.6152046 34.4375 8.25 C31.43839176 12.24587068 31.12199958 16.10892597 31 21 C29.35 21 27.7 21 26 21 C25.99613281 20.1646875 25.99613281 20.1646875 25.9921875 19.3125 C25.65417419 12.64237066 23.39376037 8.93122341 19 4 C18.67 4.33 18.34 4.66 18 5 C16.02 5 14.04 5 12 5 C12 10.28 12 15.56 12 21 C10.35 21 8.7 21 7 21 C7 15.72 7 10.44 7 5 C4.69 5 2.38 5 0 5 C0 3.35 0 1.7 0 0 Z " fill="#000000" transform="translate(465,284)"/>
<path d="M0 0 C2.31 0 4.62 0 7 0 C8.32 3.63 9.64 7.26 11 11 C12.65 7.37 14.3 3.74 16 0 C17.98 0 19.96 0 22 0 C22 6.6 22 13.2 22 20 C20.68 20 19.36 20 18 20 C17.67 17.36 17.34 14.72 17 12 C16.01 14.64 15.02 17.28 14 20 C12.02 20 10.04 20 8 20 C7.34 18.68 6.68 17.36 6 16 C5.67 17.32 5.34 18.64 5 20 C3.35 20 1.7 20 0 20 C0 13.4 0 6.8 0 0 Z " fill="#000000" transform="translate(331,256)"/>
<path d="M0 0 C1.65 0 3.3 0 5 0 C5 2.64 5 5.28 5 8 C8.63 8 12.26 8 16 8 C16 9.32 16 10.64 16 12 C12.7 12 9.4 12 6 12 C8.80741229 18.39742182 11.21532964 22.96418347 17 27 C16.01 27.99 15.02 28.98 14 30 C9.36279281 26.72469104 5.31457218 23.69564393 2 19 C1.54109375 19.54269531 1.0821875 20.08539063 0.609375 20.64453125 C-0.00421875 21.35996094 -0.6178125 22.07539063 -1.25 22.8125 C-1.85328125 23.52019531 -2.4565625 24.22789062 -3.078125 24.95703125 C-4.95707211 26.9543673 -6.64879512 28.58457466 -9 30 C-9.99 29.67 -10.98 29.34 -12 29 C-10.67015037 26.07816693 -9.17369277 23.91552242 -7 21.5625 C-4.60761082 18.85501566 -3.0629601 16.50776832 -2 13 C-5.3 12.67 -8.6 12.34 -12 12 C-12 10.68 -12 9.36 -12 8 C-8.04 8 -4.08 8 0 8 C0 5.36 0 2.72 0 0 Z " fill="#000000" transform="translate(499,187)"/>
<path d="M0 0 C1.98 0 3.96 0 6 0 C7.8984375 1.96875 7.8984375 1.96875 9.375 4.5 C9.87773437 5.3353125 10.38046875 6.170625 10.8984375 7.03125 C11.26195312 7.6809375 11.62546875 8.330625 12 9 C12.33 6.03 12.66 3.06 13 0 C14.65 0 16.3 0 18 0 C18 6.93 18 13.86 18 21 C16.02 21 14.04 21 12 21 C10.1015625 18.8125 10.1015625 18.8125 8.625 16 C7.87089844 14.6078125 7.87089844 14.6078125 7.1015625 13.1875 C6.73804688 12.465625 6.37453125 11.74375 6 11 C5.67 14.3 5.34 17.6 5 21 C3.35 21 1.7 21 0 21 C0 14.07 0 7.14 0 0 Z " fill="#000000" transform="translate(374,227)"/>
<path d="M0 0 C1.98 0 3.96 0 6 0 C7.8984375 2.1875 7.8984375 2.1875 9.375 5 C9.87773437 5.928125 10.38046875 6.85625 10.8984375 7.8125 C11.26195312 8.534375 11.62546875 9.25625 12 10 C12.33 6.7 12.66 3.4 13 0 C14.65 0 16.3 0 18 0 C18 6.93 18 13.86 18 21 C16.02 21 14.04 21 12 21 C10.1015625 18.8125 10.1015625 18.8125 8.625 16 C7.87089844 14.6078125 7.87089844 14.6078125 7.1015625 13.1875 C6.73804688 12.465625 6.37453125 11.74375 6 11 C5.67 14.3 5.34 17.6 5 21 C3.35 21 1.7 21 0 21 C0 14.07 0 7.14 0 0 Z " fill="#000000" transform="translate(464,227)"/>
<path d="M0 0 C1.65 0 3.3 0 5 0 C6.80078125 1.96875 6.80078125 1.96875 8.3125 4.5 C8.82425781 5.3353125 9.33601563 6.170625 9.86328125 7.03125 C10.23839844 7.6809375 10.61351562 8.330625 11 9 C11.33 6.03 11.66 3.06 12 0 C13.65 0 15.3 0 17 0 C17 6.93 17 13.86 17 21 C15.02 21 13.04 21 11 21 C9.1015625 18.8125 9.1015625 18.8125 7.625 16 C7.12226563 15.071875 6.61953125 14.14375 6.1015625 13.1875 C5.73804688 12.465625 5.37453125 11.74375 5 11 C4.67 14.3 4.34 17.6 4 21 C2.68 21 1.36 21 0 21 C0 14.07 0 7.14 0 0 Z " fill="#000000" transform="translate(353,284)"/>
<path d="M0 0 C2.20004472 4.31208765 2.22807616 8.30285653 1.5625 13.0625 C0.57956619 15.44070003 -0.02047947 16.74171498 -2.0625 18.3125 C-6.30245689 19.65143376 -10.59901066 19.69145688 -14.8125 18.25 C-16.4375 17.0625 -16.4375 17.0625 -18.4375 14.0625 C-19.11526401 8.97138897 -19.2133109 4.49918686 -16.75 -0.0625 C-11.75311896 -4.11402517 -5.07005641 -4.03004484 0 0 Z M-11.4375 2.0625 C-13.75082486 5.53248729 -13.77707563 6.98759248 -13.4375 11.0625 C-11.79075825 14.09531253 -11.79075825 14.09531253 -9.5625 14.9375 C-7.35204011 15.23068705 -7.35204011 15.23068705 -5.1875 14.0625 C-3.10532075 12.05958295 -3.10532075 12.05958295 -3 8.5625 C-3.17727717 5.18790303 -3.17727717 5.18790303 -4.625 3.125 C-7.08223241 1.68455341 -8.63913168 1.6319818 -11.4375 2.0625 Z " fill="#000000" transform="translate(470.4375,257.9375)"/>
<path d="M0 0 C3.41849514 2.37201703 4.65445152 3.940318 5.9375 7.875 C6.01369617 11.68480855 5.40365993 14.45742969 4 18 C1.08030675 20.77145275 -1.0075922 21.43141401 -5 21.4375 C-8.51084753 21.33925832 -9.6639169 21.24591446 -12.5625 19.125 C-14.64027891 16.05350075 -15.15696414 14.30151738 -15.1875 10.625 C-15.20167969 9.85414063 -15.21585937 9.08328125 -15.23046875 8.2890625 C-14.97105568 5.71251912 -14.39340154 4.17574327 -13 2 C-8.75780331 -0.82813113 -4.9798445 -0.77040656 0 0 Z M-8.25 5.5625 C-10.36102774 7.99081768 -10.36102774 7.99081768 -9.9375 11.625 C-9.3249155 15.25516924 -9.3249155 15.25516924 -6 17 C-2.68913741 16.71725862 -2.68913741 16.71725862 0 15 C0.5342423 9.71016229 0.5342423 9.71016229 -1.3125 5 C-4.15754709 3.31404617 -5.61217111 3.73067438 -8.25 5.5625 Z " fill="#000000" transform="translate(456,227)"/>
<path d="M0 0 C2.82106084 2.17393577 3.8772799 3.3358677 4.53125 6.875 C4.5209375 7.90625 4.510625 8.9375 4.5 10 C4.5103125 11.03125 4.520625 12.0625 4.53125 13.125 C3.88189874 16.63913621 2.74454819 17.78797608 0 20 C-3.06429776 21.53214888 -5.6165642 21.22938548 -9 21 C-11.78901573 19.76043745 -13.44350587 18.71549246 -15.3125 16.3125 C-16.69627616 11.65798019 -16.6185078 7.58063104 -14.875 3.125 C-10.73508786 -1.56690043 -5.76187744 -1.49382008 0 0 Z M-10 5 C-10.76767726 8.39057458 -11.28954394 10.9997573 -10.3125 14.375 C-9.09185496 16.11610801 -9.09185496 16.11610801 -7.125 16.9375 C-4.92099005 17.14822022 -4.92099005 17.14822022 -2.75 16.0625 C-0.74830748 13.70336239 -0.70139667 12.93879769 -0.625 9.9375 C-0.57855488 5.99685749 -0.57855488 5.99685749 -3 4 C-5.78302919 3.79127281 -7.48718205 3.74359102 -10 5 Z " fill="#000000" transform="translate(427,256)"/>
<path d="M0 0 C3.125 1.75 3.125 1.75 5 5 C5.77194105 10.09759271 6.43861282 15.00986356 3.30859375 19.33984375 C-0.76456812 22.26893647 -5.19536916 21.73748893 -10 21 C-13.16620095 18.81381363 -13.7896387 17.63108389 -15 14 C-15.39527019 8.76266997 -14.77531183 5.48319603 -12 1 C-8.25904148 -0.87047926 -4.07430563 -0.5244789 0 0 Z M-8.25 5.5625 C-10.36102774 7.99081768 -10.36102774 7.99081768 -9.9375 11.625 C-9.3249155 15.25516924 -9.3249155 15.25516924 -6 17 C-2.68913741 16.71725862 -2.68913741 16.71725862 0 15 C0.23790731 12.93335994 0.23790731 12.93335994 0.25 10.5625 C0.27578125 9.75941406 0.3015625 8.95632812 0.328125 8.12890625 C0.21984375 7.42636719 0.1115625 6.72382813 0 6 C-3.51056778 3.65962148 -4.73207044 3.11949336 -8.25 5.5625 Z " fill="#000000" transform="translate(366,227)"/>
<path d="M0 0 C9.86360567 -0.35651587 9.86360567 -0.35651587 14.1875 1 C16.6180588 3.68199592 16.48439963 5.54335275 16.37109375 9.0625 C16 11 16 11 14 14 C14.7425 15.175625 14.7425 15.175625 15.5 16.375 C17 19 17 19 17 21 C14.1875 21.3125 14.1875 21.3125 11 21 C9.11400657 18.61107499 8 17.08148442 8 14 C7.01 14 6.02 14 5 14 C5 16.31 5 18.62 5 21 C3.35 21 1.7 21 0 21 C0 14.07 0 7.14 0 0 Z M5 5 C5 6.65 5 8.3 5 10 C6.98 9.67 8.96 9.34 11 9 C11 7.68 11 6.36 11 5 C9.02 5 7.04 5 5 5 Z " fill="#000000" transform="translate(421,284)"/>
<path d="M0 0 C1.98 0 3.96 0 6 0 C7.65 2.97 9.3 5.94 11 9 C11.33 6.03 11.66 3.06 12 0 C13.65 0 15.3 0 17 0 C17 6.6 17 13.2 17 20 C15.02 20 13.04 20 11 20 C9.1015625 17.8125 9.1015625 17.8125 7.625 15 C7.12226562 14.071875 6.61953125 13.14375 6.1015625 12.1875 C5.73804688 11.465625 5.37453125 10.74375 5 10 C4.67 13.3 4.34 16.6 4 20 C2.68 20 1.36 20 0 20 C0 13.4 0 6.8 0 0 Z " fill="#000000" transform="translate(537,256)"/>
<path d="M0 0 C12.45830237 -0.37004859 12.45830237 -0.37004859 14.8984375 1.296875 C16.73819551 4.14132355 16.28807616 6.7159318 16 10 C15.608125 10.680625 15.21625 11.36125 14.8125 12.0625 C14.544375 12.701875 14.27625 13.34125 14 14 C15.28322447 17.23394361 15.28322447 17.23394361 17 20 C14.69 20 12.38 20 10 20 C9.319375 18.5459375 9.319375 18.5459375 8.625 17.0625 C7.34213779 13.92920418 7.34213779 13.92920418 5 13 C5 15.31 5 17.62 5 20 C3.35 20 1.7 20 0 20 C0 13.4 0 6.8 0 0 Z M5 4 C5 5.65 5 7.3 5 9 C6.65 9 8.3 9 10 9 C10 7.68 10 6.36 10 5 C8.35 4.67 6.7 4.34 5 4 Z " fill="#000000" transform="translate(393,256)"/>
<path d="M0 0 C1.65 0 3.3 0 5 0 C5.33 1.98 5.66 3.96 6 6 C6.70125 5.01 7.4025 4.02 8.125 3 C10.32959535 0.30900395 10.64418661 0.04028076 14.3125 -0.375 C15.199375 -0.25125 16.08625 -0.1275 17 0 C15.34832443 3.5786304 13.21713508 6.74820188 11 10 C11.5053125 10.62648437 12.010625 11.25296875 12.53125 11.8984375 C13.1809375 12.71570313 13.830625 13.53296875 14.5 14.375 C15.1496875 15.18710938 15.799375 15.99921875 16.46875 16.8359375 C18 19 18 19 18 21 C15.3125 21.4375 15.3125 21.4375 12 21 C10.38267035 19.29281871 9.2083375 17.53398738 7.98046875 15.53125 C7.65691406 15.0259375 7.33335937 14.520625 7 14 C6.67 14 6.34 14 6 14 C5.67 16.31 5.34 18.62 5 21 C3.35 21 1.7 21 0 21 C0 14.07 0 7.14 0 0 Z " fill="#000000" transform="translate(424,227)"/>
<path d="M0 0 C0 1.65 0 3.3 0 5 C-1.98567708 4.93489583 -3.97135417 4.86979167 -5.95703125 4.8046875 C-8.31359719 4.86745538 -8.31359719 4.86745538 -11 7 C-11.36362818 9.20725073 -11.36362818 9.20725073 -11.1875 11.625 C-11.16042969 12.44226563 -11.13335937 13.25953125 -11.10546875 14.1015625 C-11.07066406 14.72804687 -11.03585937 15.35453125 -11 16 C-9.02 16 -7.04 16 -5 16 C-4.67 15.01 -4.34 14.02 -4 13 C-5.65 13 -7.3 13 -9 13 C-9 11.68 -9 10.36 -9 9 C-6.03 9 -3.06 9 0 9 C0 12.63 0 16.26 0 20 C-3.96888275 21.98444138 -8.68288736 21.52927673 -13 21 C-15.6875 19.1875 -15.6875 19.1875 -17 16 C-17.80722626 10.72137337 -17.85003605 6.54827994 -15.25 1.8125 C-10.30711939 -0.94410649 -5.53542981 -0.39727965 0 0 Z " fill="#000000" transform="translate(412,227)"/>
<path d="M0 0 C-0.33 1.65 -0.66 3.3 -1 5 C-2.093125 4.95875 -3.18625 4.9175 -4.3125 4.875 C-8.08892229 4.67925334 -8.08892229 4.67925334 -11 7 C-11.36297936 8.97747122 -11.36297936 8.97747122 -11.1875 11.125 C-11.125625 12.40375 -11.06375 13.6825 -11 15 C-8.03 15.495 -8.03 15.495 -5 16 C-4.67 15.01 -4.34 14.02 -4 13 C-5.65 13 -7.3 13 -9 13 C-9 11.68 -9 10.36 -9 9 C-6.03 9 -3.06 9 0 9 C0 12.63 0 16.26 0 20 C-3.96888275 21.98444138 -8.68288736 21.52927673 -13 21 C-15.6875 19.1875 -15.6875 19.1875 -17 16 C-17.80722626 10.72137337 -17.85003605 6.54827994 -15.25 1.8125 C-10.30711939 -0.94410649 -5.53542981 -0.39727965 0 0 Z " fill="#000000" transform="translate(502,227)"/>
<path d="M0 0 C1.65 0 3.3 0 5 0 C5 2.64 5 5.28 5 8 C7.31 8 9.62 8 12 8 C12 5.36 12 2.72 12 0 C13.65 0 15.3 0 17 0 C17 6.93 17 13.86 17 21 C15.35 21 13.7 21 12 21 C12 18.03 12 15.06 12 12 C9.69 12 7.38 12 5 12 C5 14.97 5 17.94 5 21 C3.35 21 1.7 21 0 21 C0 14.07 0 7.14 0 0 Z " fill="#000000" transform="translate(331,227)"/>
<path d="M0 0 C1.79244141 0.01740234 1.79244141 0.01740234 3.62109375 0.03515625 C5.41740234 0.04869141 5.41740234 0.04869141 7.25 0.0625 C8.17683594 0.07410156 9.10367187 0.08570313 10.05859375 0.09765625 C10.05859375 1.74765625 10.05859375 3.39765625 10.05859375 5.09765625 C7.41859375 5.09765625 4.77859375 5.09765625 2.05859375 5.09765625 C2.05859375 6.08765625 2.05859375 7.07765625 2.05859375 8.09765625 C4.36859375 8.09765625 6.67859375 8.09765625 9.05859375 8.09765625 C9.05859375 9.74765625 9.05859375 11.39765625 9.05859375 13.09765625 C6.74859375 13.09765625 4.43859375 13.09765625 2.05859375 13.09765625 C2.05859375 14.41765625 2.05859375 15.73765625 2.05859375 17.09765625 C5.02859375 17.09765625 7.99859375 17.09765625 11.05859375 17.09765625 C11.05859375 18.41765625 11.05859375 19.73765625 11.05859375 21.09765625 C6.10859375 21.09765625 1.15859375 21.09765625 -3.94140625 21.09765625 C-3.96824061 17.78510299 -3.98816405 14.47276442 -4.00390625 11.16015625 C-4.01228516 10.21462891 -4.02066406 9.26910156 -4.02929688 8.29492188 C-4.03251953 7.39580078 -4.03574219 6.49667969 -4.0390625 5.5703125 C-4.04429932 4.73765869 -4.04953613 3.90500488 -4.05493164 3.04711914 C-3.86784489 -0.16554252 -3.26672345 0.10845695 0 0 Z " fill="#000000" transform="translate(406.94140625,283.90234375)"/>
<path d="M0 0 C1.65 0 3.3 0 5 0 C5.33 4.95 5.66 9.9 6 15 C9.63619656 16.08084521 9.63619656 16.08084521 12 16 C12 10.72 12 5.44 12 0 C13.65 0 15.3 0 17 0 C17.08086376 2.93804996 17.1404283 5.87388075 17.1875 8.8125 C17.21263672 9.64587891 17.23777344 10.47925781 17.26367188 11.33789062 C17.27333984 12.14033203 17.28300781 12.94277344 17.29296875 13.76953125 C17.3086792 14.50792236 17.32438965 15.24631348 17.34057617 16.00708008 C16.90227962 18.57182185 16.04039626 19.43265566 14 21 C11.40625 21.43359375 11.40625 21.43359375 8.5 21.4375 C7.5409375 21.45683594 6.581875 21.47617187 5.59375 21.49609375 C3 21 3 21 1.16796875 19.51953125 C-0.56823766 15.77420304 -0.31915925 12.32130898 -0.1875 8.25 C-0.17396484 7.45722656 -0.16042969 6.66445313 -0.14648438 5.84765625 C-0.11125223 3.89814436 -0.05744821 1.94898374 0 0 Z " fill="#000000" transform="translate(331,284)"/>
<path d="M0 0 C12.625 -0.25 12.625 -0.25 16 2 C16.99200693 5.75545481 17.27327325 8.16196204 16.0625 11.875 C12.9683415 15.06292088 10.36829972 14.78516559 6 15 C6 16.65 6 18.3 6 20 C4.02 20 2.04 20 0 20 C0 13.4 0 6.8 0 0 Z M6 4 C6 6.31 6 8.62 6 11 C7.65 10.67 9.3 10.34 11 10 C11 8.35 11 6.7 11 5 C9.35 4.67 7.7 4.34 6 4 Z " fill="#000000" transform="translate(434,256)"/>
<path d="M0 0 C2.31 0 4.62 0 7 0 C9.31 6.6 11.62 13.2 14 20 C12.02 20 10.04 20 8 20 C7.67 18.68 7.34 17.36 7 16 C4.69 16.33 2.38 16.66 0 17 C-0.33 17.99 -0.66 18.98 -1 20 C-2.98 20 -4.96 20 -7 20 C-4.69 13.4 -2.38 6.8 0 0 Z M3 7 C2.34 8.65 1.68 10.3 1 12 C2.32 12 3.64 12 5 12 C4.67 10.35 4.34 8.7 4 7 C3.67 7 3.34 7 3 7 Z " fill="#000000" transform="translate(521,256)"/>
<path d="M0 0 C1.65 0 3.3 0 5 0 C6.32 3.63 7.64 7.26 9 11 C10.66832577 8.49751135 11.62381674 6.58850813 12.625 3.8125 C12.88539063 3.09707031 13.14578125 2.38164062 13.4140625 1.64453125 C13.60742188 1.10183594 13.80078125 0.55914062 14 0 C15.65 0 17.3 0 19 0 C18.42381249 5.14595054 17.25256722 9.55078055 15.4375 14.4375 C14.98246094 15.67371094 14.52742188 16.90992188 14.05859375 18.18359375 C13.70925781 19.11300781 13.35992187 20.04242188 13 21 C10.69 21 8.38 21 6 21 C4.99222971 18.25262623 3.99358554 15.50250048 3 12.75 C2.71382813 11.97269531 2.42765625 11.19539063 2.1328125 10.39453125 C1.72675781 9.26337891 1.72675781 9.26337891 1.3125 8.109375 C0.93544922 7.07248535 0.93544922 7.07248535 0.55078125 6.01464844 C0 4 0 4 0 0 Z " fill="#000000" transform="translate(382,284)"/>
<path d="M0 0 C0.99386719 0.02707031 1.98773438 0.05414063 3.01171875 0.08203125 C4.15060547 0.13423828 4.15060547 0.13423828 5.3125 0.1875 C5.3125 1.8375 5.3125 3.4875 5.3125 5.1875 C2.6725 5.1875 0.0325 5.1875 -2.6875 5.1875 C-2.6875 5.8475 -2.6875 6.5075 -2.6875 7.1875 C-1.016875 7.8371875 -1.016875 7.8371875 0.6875 8.5 C4.3125 10.1875 4.3125 10.1875 6.3125 13.1875 C5.86805556 18.63194444 5.86805556 18.63194444 3.3125 21.1875 C0.4921875 21.3828125 0.4921875 21.3828125 -2.8125 21.3125 C-3.90820312 21.29445313 -5.00390625 21.27640625 -6.1328125 21.2578125 C-6.97585938 21.23460937 -7.81890625 21.21140625 -8.6875 21.1875 C-8.6875 19.8675 -8.6875 18.5475 -8.6875 17.1875 C-5.7175 17.1875 -2.7475 17.1875 0.3125 17.1875 C-0.0175 16.1975 -0.3475 15.2075 -0.6875 14.1875 C-3.00558364 13.15264123 -5.33925298 12.1519586 -7.6875 11.1875 C-9.08685013 8.38879973 -8.94015405 6.28251208 -8.6875 3.1875 C-6.2905565 -0.28282224 -4.02778666 -0.14215718 0 0 Z " fill="#000000" transform="translate(448.6875,283.8125)"/>
<path d="M0 0 C4.62 0 9.24 0 14 0 C14 1.32 14 2.64 14 4 C11.03 4 8.06 4 5 4 C5 5.32 5 6.64 5 8 C7.64 8 10.28 8 13 8 C13 9.32 13 10.64 13 12 C10.36 12 7.72 12 5 12 C5 13.32 5 14.64 5 16 C7.97 16 10.94 16 14 16 C14 17.32 14 18.64 14 20 C9.38 20 4.76 20 0 20 C0 13.4 0 6.8 0 0 Z " fill="#000000" transform="translate(358,256)"/>
<path d="M0 0 C5.61 0 11.22 0 17 0 C16.67 1.32 16.34 2.64 16 4 C18.31 4.33 20.62 4.66 23 5 C23 5.99 23 6.98 23 8 C19.04 8 15.08 8 11 8 C11 9.65 11 11.3 11 13 C10 14 10 14 6.4375 14.0625 C5.303125 14.041875 4.16875 14.02125 3 14 C2.67 12.68 2.34 11.36 2 10 C3.32 10 4.64 10 6 10 C6 9.34 6 8.68 6 8 C1.71 8 -2.58 8 -7 8 C-7 7.01 -7 6.02 -7 5 C-2.38 4.67 2.24 4.34 7 4 C4.69 3.67 2.38 3.34 0 3 C0 2.01 0 1.02 0 0 Z " fill="#000000" transform="translate(531,203)"/>
<path d="M0 0 C5.94 0 11.88 0 18 0 C18 1.32 18 2.64 18 4 C16.02 4 14.04 4 12 4 C12 9.28 12 14.56 12 20 C10.02 20 8.04 20 6 20 C6 14.72 6 9.44 6 4 C4.02 4 2.04 4 0 4 C0 2.68 0 1.36 0 0 Z " fill="#000000" transform="translate(499,256)"/>
<path d="M0 0 C5.94 0 11.88 0 18 0 C18 1.32 18 2.64 18 4 C16.02 4 14.04 4 12 4 C12 9.28 12 14.56 12 20 C10.02 20 8.04 20 6 20 C6 14.72 6 9.44 6 4 C4.02 4 2.04 4 0 4 C0 2.68 0 1.36 0 0 Z " fill="#000000" transform="translate(373,256)"/>
<path d="M0 0 C1.65 0 3.3 0 5 0 C5 5.28 5 10.56 5 16 C7.97 16 10.94 16 14 16 C14 17.32 14 18.64 14 20 C9.38 20 4.76 20 0 20 C0 13.4 0 6.8 0 0 Z " fill="#000000" transform="translate(475,256)"/>
<path d="M0 0 C1.65 0 3.3 0 5 0 C5 6.93 5 13.86 5 21 C3.35 21 1.7 21 0 21 C0 14.07 0 7.14 0 0 Z " fill="#000000" transform="translate(458,284)"/>
<path d="M0 0 C2.475 0.495 2.475 0.495 5 1 C5 7.6 5 14.2 5 21 C3.35 21 1.7 21 0 21 C0 14.07 0 7.14 0 0 Z " fill="#000000" transform="translate(375,284)"/>
<path d="M0 0 C1.65 0 3.3 0 5 0 C5 6.6 5 13.2 5 20 C3.35 20 1.7 20 0 20 C0 13.4 0 6.8 0 0 Z " fill="#000000" transform="translate(492,256)"/>
</svg>
